<svg viewBox="0 0 60 60" fill="none" xmlns="http://www.w3.org/2000/svg">
<path d="M45 60H15C6.71573 60 0 53.2843 0 45V15C0 6.71573 6.71573 0 15 0H45C53.2843 0 60 6.71573 60 15V45C60 53.2843 53.2843 60 45 60Z" fill="#FFF5FA"/>
<path d="M30 16V44" stroke="url(#paint0_linear_225_19)" stroke-width="1.5" stroke-linecap="round" stroke-linejoin="round"/>
<path d="M36.7143 20H26C24.6739 20 23.4021 20.5268 22.4645 21.4645C21.5268 22.4021 21 23.6739 21 25C21 26.3261 21.5268 27.5979 22.4645 28.5355C23.4021 29.4732 24.6739 30 26 30H33.1429C34.4689 30 35.7407 30.5268 36.6784 31.4645C37.6161 32.4021 38.1429 33.6739 38.1429 35C38.1429 36.3261 37.6161 37.5979 36.6784 38.5355C35.7407 39.4732 34.4689 40 33.1429 40H21" stroke="url(#paint1_linear_225_19)" stroke-width="1.5" stroke-linecap="round" stroke-linejoin="round"/>
<defs>
<linearGradient id="paint0_linear_225_19" x1="30.0092" y1="16.08" x2="32.0066" y2="16.1533" gradientUnits="userSpaceOnUse">
<stop stop-color="#E96401"/>
<stop offset="1" stop-color="#FD4D7C"/>
</linearGradient>
<linearGradient id="paint1_linear_225_19" x1="21.1581" y1="20.0571" x2="40.4594" y2="37.0646" gradientUnits="userSpaceOnUse">
<stop stop-color="#E96401"/>
<stop offset="1" stop-color="#FD4D7C"/>
</linearGradient>
</defs>
</svg>
