<svg width="722" height="458" viewBox="0 0 722 458" fill="none" xmlns="http://www.w3.org/2000/svg">
<g id="iti-verse" clip-path="url(#clip0_189_410)">
<g id="Background" filter="url(#filter0_d_189_410)">
<path fill-rule="evenodd" clip-rule="evenodd" d="M2.72484 13.6502C0 18.998 0 25.9987 0 40V418C0 432.001 0 439.002 2.72484 444.35C5.12167 449.054 8.94619 452.878 13.6502 455.275C18.998 458 25.9987 458 40 458H682C696.001 458 703.002 458 708.35 455.275C713.054 452.878 716.878 449.054 719.275 444.35C722 439.002 722 432.001 722 418V385.833C715.029 380.168 710 364.027 710 345C710 325.973 715.029 309.832 722 304.167V40C722 25.9987 722 18.998 719.275 13.6502C716.878 8.94619 713.054 5.12167 708.35 2.72484C703.002 0 696.001 0 682 0H40C25.9987 0 18.998 0 13.6502 2.72484C8.94619 5.12167 5.12167 8.94619 2.72484 13.6502Z" fill="url(#paint0_linear_189_410)"/>
</g>
<rect id="Rectangle 405" width="722" height="107.344" transform="matrix(-1 0 0 1 722 33)" fill="#D6D6D6"/>
<path id="Ficou com alguma d&#195;&#186;vida?" d="M684.954 187.146H690.156V191.448H685.584V192.726H690.156V198H691.614V185.868H684.954V187.146ZM682.807 198V188.874H681.385V198H682.807ZM682.771 186.678C682.939 186.498 683.023 186.276 683.023 186.012C683.023 185.748 682.939 185.526 682.771 185.346C682.591 185.166 682.369 185.076 682.105 185.076C681.841 185.076 681.619 185.166 681.439 185.346C681.259 185.526 681.169 185.748 681.169 186.012C681.169 186.276 681.259 186.498 681.439 186.678C681.619 186.846 681.841 186.93 682.105 186.93C682.369 186.93 682.591 186.846 682.771 186.678ZM677.742 193.482C677.73 194.466 677.43 195.288 676.842 195.948C676.254 196.596 675.42 196.92 674.34 196.92C673.644 196.92 672.996 196.722 672.396 196.326V197.676C672.972 198.024 673.68 198.198 674.52 198.198C675.96 198.198 677.106 197.742 677.958 196.83C678.798 195.906 679.218 194.784 679.218 193.464C679.218 192.168 678.798 191.052 677.958 190.116C677.106 189.18 675.948 188.712 674.484 188.712C673.704 188.712 673.008 188.88 672.396 189.216V190.566C672.948 190.194 673.596 190.008 674.34 190.008C675.372 190.008 676.2 190.344 676.824 191.016C677.436 191.676 677.742 192.498 677.742 193.482ZM666.498 198.162C667.806 198.162 668.844 197.724 669.612 196.848C670.368 195.96 670.746 194.844 670.746 193.5C670.746 192.144 670.356 191.016 669.576 190.116C668.784 189.204 667.758 188.748 666.498 188.748C665.118 188.748 664.056 189.192 663.312 190.08C662.556 190.968 662.178 192.096 662.178 193.464C662.178 194.82 662.562 195.942 663.33 196.83C664.098 197.718 665.154 198.162 666.498 198.162ZM666.498 190.008C667.362 190.008 668.04 190.344 668.532 191.016C669.024 191.688 669.27 192.51 669.27 193.482C669.27 194.43 669.018 195.24 668.514 195.912C668.01 196.572 667.338 196.902 666.498 196.902C665.586 196.902 664.884 196.578 664.392 195.93C663.9 195.27 663.654 194.454 663.654 193.482C663.654 192.474 663.888 191.646 664.356 190.998C664.824 190.338 665.538 190.008 666.498 190.008ZM654.428 188.874H653.006V198H654.428V196.416C654.908 197.544 655.862 198.108 657.29 198.108C658.19 198.108 658.904 197.844 659.432 197.316C659.948 196.776 660.206 196.056 660.206 195.156V188.874H658.784V194.796C658.784 195.456 658.616 195.96 658.28 196.308C657.944 196.656 657.488 196.83 656.912 196.83C656.156 196.83 655.556 196.566 655.112 196.038C654.656 195.51 654.428 194.796 654.428 193.896V188.874ZM645.047 193.482C645.035 194.466 644.735 195.288 644.147 195.948C643.559 196.596 642.725 196.92 641.645 196.92C640.949 196.92 640.301 196.722 639.701 196.326V197.676C640.277 198.024 640.985 198.198 641.825 198.198C643.265 198.198 644.411 197.742 645.263 196.83C646.103 195.906 646.523 194.784 646.523 193.464C646.523 192.168 646.103 191.052 645.263 190.116C644.411 189.18 643.253 188.712 641.789 188.712C641.009 188.712 640.313 188.88 639.701 189.216V190.566C640.253 190.194 640.901 190.008 641.645 190.008C642.677 190.008 643.505 190.344 644.129 191.016C644.741 191.676 645.047 192.498 645.047 193.482ZM633.802 198.162C635.11 198.162 636.148 197.724 636.916 196.848C637.672 195.96 638.05 194.844 638.05 193.5C638.05 192.144 637.66 191.016 636.88 190.116C636.088 189.204 635.062 188.748 633.802 188.748C632.422 188.748 631.36 189.192 630.616 190.08C629.86 190.968 629.482 192.096 629.482 193.464C629.482 194.82 629.866 195.942 630.634 196.83C631.402 197.718 632.458 198.162 633.802 198.162ZM633.802 190.008C634.666 190.008 635.344 190.344 635.836 191.016C636.328 191.688 636.574 192.51 636.574 193.482C636.574 194.43 636.322 195.24 635.818 195.912C635.314 196.572 634.642 196.902 633.802 196.902C632.89 196.902 632.188 196.578 631.696 195.93C631.204 195.27 630.958 194.454 630.958 193.482C630.958 192.474 631.192 191.646 631.66 190.998C632.128 190.338 632.842 190.008 633.802 190.008ZM625.999 188.874V190.35C625.495 189.282 624.637 188.748 623.425 188.748C622.021 188.748 621.133 189.342 620.761 190.53C620.497 189.954 620.131 189.516 619.663 189.216C619.183 188.904 618.649 188.748 618.061 188.748C617.113 188.748 616.399 189.018 615.919 189.558C615.439 190.098 615.199 190.824 615.199 191.736V198H616.621V192.096C616.621 190.716 617.203 190.026 618.367 190.026C618.943 190.026 619.459 190.29 619.915 190.818C620.371 191.334 620.599 192.066 620.599 193.014V198H622.021V192.096C622.021 190.716 622.603 190.026 623.767 190.026C624.343 190.026 624.859 190.29 625.315 190.818C625.771 191.334 625.999 192.066 625.999 193.014V198H627.403V188.874H625.999ZM603.364 193.788H604.948C605.716 193.788 606.292 193.938 606.676 194.238C607.06 194.538 607.252 194.916 607.252 195.372C607.252 195.828 607.102 196.2 606.802 196.488C606.502 196.764 606.064 196.902 605.488 196.902C604.84 196.902 604.324 196.722 603.94 196.362C603.556 195.99 603.364 195.522 603.364 194.958V193.788ZM608.08 190.782V189.36C607.396 188.94 606.496 188.73 605.38 188.73C603.088 188.73 601.942 189.894 601.942 192.222V198H603.346V196.92C603.814 197.7 604.666 198.09 605.902 198.09C606.754 198.09 607.444 197.838 607.972 197.334C608.488 196.83 608.746 196.194 608.746 195.426C608.746 194.55 608.416 193.872 607.756 193.392C607.084 192.9 606.172 192.654 605.02 192.654H603.364V192.186C603.364 191.466 603.526 190.926 603.85 190.566C604.174 190.194 604.72 190.008 605.488 190.008C606.46 190.008 607.324 190.266 608.08 190.782ZM599.346 198V185.274H597.924V198H599.346ZM591.797 196.506C591.137 196.506 590.555 196.254 590.051 195.75C589.535 195.234 589.277 194.472 589.277 193.464C589.277 192.3 589.523 191.436 590.015 190.872C590.507 190.308 591.077 190.026 591.725 190.026C592.505 190.026 593.123 190.338 593.579 190.962C594.035 191.574 594.263 192.378 594.263 193.374C594.263 194.394 594.011 195.174 593.507 195.714C593.003 196.242 592.433 196.506 591.797 196.506ZM589.277 188.874H587.855V197.262C587.855 198.654 588.239 199.698 589.007 200.394C589.775 201.102 590.765 201.456 591.977 201.456C593.081 201.456 594.023 201.27 594.803 200.898V199.476C594.035 199.92 593.135 200.142 592.103 200.142C591.227 200.142 590.537 199.908 590.033 199.44C589.529 198.972 589.277 198.24 589.277 197.244V196.218C589.877 197.25 590.771 197.766 591.959 197.766C593.003 197.766 593.897 197.382 594.641 196.614C595.373 195.846 595.739 194.778 595.739 193.41C595.739 192.054 595.397 190.938 594.713 190.062C594.029 189.186 593.135 188.748 592.031 188.748C590.783 188.748 589.865 189.294 589.277 190.386V188.874ZM579.668 188.874H578.246V198H579.668V196.416C580.148 197.544 581.102 198.108 582.53 198.108C583.43 198.108 584.144 197.844 584.672 197.316C585.188 196.776 585.446 196.056 585.446 195.156V188.874H584.024V194.796C584.024 195.456 583.856 195.96 583.52 196.308C583.184 196.656 582.728 196.83 582.152 196.83C581.396 196.83 580.796 196.566 580.352 196.038C579.896 195.51 579.668 194.796 579.668 193.896V188.874ZM574.214 188.874V190.35C573.71 189.282 572.852 188.748 571.64 188.748C570.236 188.748 569.348 189.342 568.976 190.53C568.712 189.954 568.346 189.516 567.878 189.216C567.398 188.904 566.864 188.748 566.276 188.748C565.328 188.748 564.614 189.018 564.134 189.558C563.654 190.098 563.414 190.824 563.414 191.736V198H564.836V192.096C564.836 190.716 565.418 190.026 566.582 190.026C567.158 190.026 567.674 190.29 568.13 190.818C568.586 191.334 568.814 192.066 568.814 193.014V198H570.236V192.096C570.236 190.716 570.818 190.026 571.982 190.026C572.558 190.026 573.074 190.29 573.53 190.818C573.986 191.334 574.214 192.066 574.214 193.014V198H575.618V188.874H574.214ZM555.973 193.788H557.557C558.325 193.788 558.901 193.938 559.285 194.238C559.669 194.538 559.861 194.916 559.861 195.372C559.861 195.828 559.711 196.2 559.411 196.488C559.111 196.764 558.673 196.902 558.097 196.902C557.449 196.902 556.933 196.722 556.549 196.362C556.165 195.99 555.973 195.522 555.973 194.958V193.788ZM560.689 190.782V189.36C560.005 188.94 559.105 188.73 557.989 188.73C555.697 188.73 554.551 189.894 554.551 192.222V198H555.955V196.92C556.423 197.7 557.275 198.09 558.511 198.09C559.363 198.09 560.053 197.838 560.581 197.334C561.097 196.83 561.355 196.194 561.355 195.426C561.355 194.55 561.025 193.872 560.365 193.392C559.693 192.9 558.781 192.654 557.629 192.654H555.973V192.186C555.973 191.466 556.135 190.926 556.459 190.566C556.783 190.194 557.329 190.008 558.097 190.008C559.069 190.008 559.933 190.266 560.689 190.782ZM544.159 196.848C543.415 196.848 542.785 196.572 542.269 196.02C541.741 195.468 541.477 194.586 541.477 193.374C541.477 192.222 541.747 191.376 542.287 190.836C542.827 190.296 543.421 190.026 544.069 190.026C544.825 190.026 545.455 190.332 545.959 190.944C546.451 191.544 546.697 192.408 546.697 193.536C546.697 194.52 546.457 195.318 545.977 195.93C545.497 196.542 544.891 196.848 544.159 196.848ZM541.477 185.274H540.055V198H541.477V196.65C542.125 197.646 543.061 198.144 544.285 198.144C545.497 198.144 546.451 197.694 547.147 196.794C547.831 195.894 548.173 194.802 548.173 193.518C548.173 192.09 547.807 190.938 547.075 190.062C546.343 189.174 545.401 188.73 544.249 188.73C543.061 188.73 542.137 189.24 541.477 190.26V185.274ZM530.94 185.112L533.172 187.92H534.414L532.632 185.112H530.94ZM531.75 188.874H530.328V198H531.75V196.416C532.23 197.544 533.184 198.108 534.612 198.108C535.512 198.108 536.226 197.844 536.754 197.316C537.27 196.776 537.528 196.056 537.528 195.156V188.874H536.106V194.796C536.106 195.456 535.938 195.96 535.602 196.308C535.266 196.656 534.81 196.83 534.234 196.83C533.478 196.83 532.878 196.566 532.434 196.038C531.978 195.51 531.75 194.796 531.75 193.896V188.874ZM525.378 198L528.564 188.874H527.088L525.828 192.726L524.496 196.884C524.388 196.368 523.938 194.982 523.146 192.726L521.85 188.874H520.374L523.632 198H525.378ZM518.54 198V188.874H517.118V198H518.54ZM518.504 186.678C518.672 186.498 518.756 186.276 518.756 186.012C518.756 185.748 518.672 185.526 518.504 185.346C518.324 185.166 518.102 185.076 517.838 185.076C517.574 185.076 517.352 185.166 517.172 185.346C516.992 185.526 516.902 185.748 516.902 186.012C516.902 186.276 516.992 186.498 517.172 186.678C517.352 186.846 517.574 186.93 517.838 186.93C518.102 186.93 518.324 186.846 518.504 186.678ZM510.937 196.848C510.193 196.848 509.563 196.572 509.047 196.02C508.519 195.468 508.255 194.586 508.255 193.374C508.255 192.222 508.525 191.376 509.065 190.836C509.605 190.296 510.199 190.026 510.847 190.026C511.603 190.026 512.233 190.332 512.737 190.944C513.229 191.544 513.475 192.408 513.475 193.536C513.475 194.52 513.235 195.318 512.755 195.93C512.275 196.542 511.669 196.848 510.937 196.848ZM508.255 185.274H506.833V198H508.255V196.65C508.903 197.646 509.839 198.144 511.063 198.144C512.275 198.144 513.229 197.694 513.925 196.794C514.609 195.894 514.951 194.802 514.951 193.518C514.951 192.09 514.585 190.938 513.853 190.062C513.121 189.174 512.179 188.73 511.027 188.73C509.839 188.73 508.915 189.24 508.255 190.26V185.274ZM499.284 193.788H500.868C501.636 193.788 502.212 193.938 502.596 194.238C502.98 194.538 503.172 194.916 503.172 195.372C503.172 195.828 503.022 196.2 502.722 196.488C502.422 196.764 501.984 196.902 501.408 196.902C500.76 196.902 500.244 196.722 499.86 196.362C499.476 195.99 499.284 195.522 499.284 194.958V193.788ZM504 190.782V189.36C503.316 188.94 502.416 188.73 501.3 188.73C499.008 188.73 497.862 189.894 497.862 192.222V198H499.266V196.92C499.734 197.7 500.586 198.09 501.822 198.09C502.674 198.09 503.364 197.838 503.892 197.334C504.408 196.83 504.666 196.194 504.666 195.426C504.666 194.55 504.336 193.872 503.676 193.392C503.004 192.9 502.092 192.654 500.94 192.654H499.284V192.186C499.284 191.466 499.446 190.926 499.77 190.566C500.094 190.194 500.64 190.008 501.408 190.008C502.38 190.008 503.244 190.266 504 190.782ZM495.842 187.902V186.462C495.062 185.97 494.102 185.724 492.962 185.724C491.822 185.724 490.91 186.018 490.226 186.606C489.542 187.182 489.2 187.986 489.2 189.018C489.2 190.038 489.554 190.83 490.262 191.394C490.97 191.958 491.792 192.282 492.728 192.366L492.746 194.328H494.114L494.132 191.34C493.028 191.34 492.176 191.154 491.576 190.782C490.976 190.398 490.676 189.828 490.676 189.072C490.676 188.46 490.874 187.962 491.27 187.578C491.666 187.194 492.254 187.002 493.034 187.002C493.958 187.002 494.894 187.302 495.842 187.902ZM494.51 197.082C494.51 196.794 494.408 196.548 494.204 196.344C494 196.128 493.754 196.02 493.466 196.02C493.166 196.02 492.908 196.128 492.692 196.344C492.476 196.548 492.368 196.794 492.368 197.082C492.368 197.382 492.476 197.634 492.692 197.838C492.896 198.042 493.154 198.144 493.466 198.144C493.766 198.144 494.018 198.042 494.222 197.838C494.414 197.634 494.51 197.382 494.51 197.082Z" fill="white"/>
<path id="Ajuda iti" d="M400.31 193.572H396.008L396.242 192.87L398.132 187.038C398.276 187.554 398.924 189.504 400.076 192.888L400.31 193.572ZM394.532 198L395.594 194.814H400.724L401.804 198H403.37L399.14 185.868H397.124L392.966 198H394.532ZM393.156 201.24V199.98C392.7 200.172 392.292 200.268 391.932 200.268C391.26 200.268 390.924 199.83 390.924 198.954V188.874H389.52V198.99C389.52 199.782 389.73 200.4 390.15 200.844C390.558 201.288 391.128 201.51 391.86 201.51C392.256 201.51 392.688 201.42 393.156 201.24ZM390.906 186.678C391.074 186.498 391.158 186.276 391.158 186.012C391.158 185.748 391.074 185.526 390.906 185.346C390.726 185.166 390.504 185.076 390.24 185.076C389.976 185.076 389.754 185.166 389.574 185.346C389.394 185.526 389.304 185.748 389.304 186.012C389.304 186.276 389.394 186.498 389.574 186.678C389.754 186.846 389.976 186.93 390.24 186.93C390.504 186.93 390.726 186.846 390.906 186.678ZM381.248 188.874H379.826V198H381.248V196.416C381.728 197.544 382.682 198.108 384.11 198.108C385.01 198.108 385.724 197.844 386.252 197.316C386.768 196.776 387.026 196.056 387.026 195.156V188.874H385.604V194.796C385.604 195.456 385.436 195.96 385.1 196.308C384.764 196.656 384.308 196.83 383.732 196.83C382.976 196.83 382.376 196.566 381.932 196.038C381.476 195.51 381.248 194.796 381.248 193.896V188.874ZM373.724 196.848C372.98 196.848 372.35 196.572 371.834 196.02C371.306 195.468 371.042 194.586 371.042 193.374C371.042 192.222 371.312 191.376 371.852 190.836C372.392 190.296 372.986 190.026 373.634 190.026C374.39 190.026 375.02 190.332 375.524 190.944C376.016 191.544 376.262 192.408 376.262 193.536C376.262 194.52 376.022 195.318 375.542 195.93C375.062 196.542 374.456 196.848 373.724 196.848ZM371.042 185.274H369.62V198H371.042V196.65C371.69 197.646 372.626 198.144 373.85 198.144C375.062 198.144 376.016 197.694 376.712 196.794C377.396 195.894 377.738 194.802 377.738 193.518C377.738 192.09 377.372 190.938 376.64 190.062C375.908 189.174 374.966 188.73 373.814 188.73C372.626 188.73 371.702 189.24 371.042 190.26V185.274ZM362.071 193.788H363.655C364.423 193.788 364.999 193.938 365.383 194.238C365.767 194.538 365.959 194.916 365.959 195.372C365.959 195.828 365.809 196.2 365.509 196.488C365.209 196.764 364.771 196.902 364.195 196.902C363.547 196.902 363.031 196.722 362.647 196.362C362.263 195.99 362.071 195.522 362.071 194.958V193.788ZM366.787 190.782V189.36C366.103 188.94 365.203 188.73 364.087 188.73C361.795 188.73 360.649 189.894 360.649 192.222V198H362.053V196.92C362.521 197.7 363.373 198.09 364.609 198.09C365.461 198.09 366.151 197.838 366.679 197.334C367.195 196.83 367.453 196.194 367.453 195.426C367.453 194.55 367.123 193.872 366.463 193.392C365.791 192.9 364.879 192.654 363.727 192.654H362.071V192.186C362.071 191.466 362.233 190.926 362.557 190.566C362.881 190.194 363.427 190.008 364.195 190.008C365.167 190.008 366.031 190.266 366.787 190.782ZM353.659 198V188.874H352.237V198H353.659ZM353.623 186.678C353.791 186.498 353.875 186.276 353.875 186.012C353.875 185.748 353.791 185.526 353.623 185.346C353.443 185.166 353.221 185.076 352.957 185.076C352.693 185.076 352.471 185.166 352.291 185.346C352.111 185.526 352.021 185.748 352.021 186.012C352.021 186.276 352.111 186.498 352.291 186.678C352.471 186.846 352.693 186.93 352.957 186.93C353.221 186.93 353.443 186.846 353.623 186.678ZM347.568 190.026V195.372C347.568 196.344 347.112 196.83 346.2 196.83C345.732 196.83 345.318 196.692 344.958 196.416V197.766C345.354 197.982 345.798 198.09 346.29 198.09C348.09 198.09 348.99 197.172 348.99 195.336V190.026H350.448V188.874H348.99V186.606H347.568V188.874H345.048V190.026H347.568ZM342.813 198V188.874H341.391V198H342.813ZM342.777 186.678C342.945 186.498 343.029 186.276 343.029 186.012C343.029 185.748 342.945 185.526 342.777 185.346C342.597 185.166 342.375 185.076 342.111 185.076C341.847 185.076 341.625 185.166 341.445 185.346C341.265 185.526 341.175 185.748 341.175 186.012C341.175 186.276 341.265 186.498 341.445 186.678C341.625 186.846 341.847 186.93 342.111 186.93C342.375 186.93 342.597 186.846 342.777 186.678Z" fill="white"/>
<path id="Ouvidoria" d="M188.136 191.88C188.136 189.972 187.65 188.454 186.678 187.326C185.694 186.198 184.368 185.634 182.7 185.634C180.996 185.634 179.664 186.198 178.704 187.326C177.732 188.442 177.246 189.96 177.246 191.88C177.246 193.788 177.738 195.312 178.722 196.452C179.694 197.58 181.014 198.144 182.682 198.144C184.326 198.144 185.646 197.574 186.642 196.434C187.638 195.294 188.136 193.776 188.136 191.88ZM186.606 191.88C186.606 193.38 186.252 194.568 185.544 195.444C184.824 196.32 183.87 196.758 182.682 196.758C181.446 196.758 180.492 196.326 179.82 195.462C179.136 194.598 178.794 193.404 178.794 191.88C178.794 190.356 179.136 189.162 179.82 188.298C180.504 187.434 181.464 187.002 182.7 187.002C183.924 187.002 184.884 187.44 185.58 188.316C186.264 189.18 186.606 190.368 186.606 191.88ZM169.412 188.874H167.99V198H169.412V196.416C169.892 197.544 170.846 198.108 172.274 198.108C173.174 198.108 173.888 197.844 174.416 197.316C174.932 196.776 175.19 196.056 175.19 195.156V188.874H173.768V194.796C173.768 195.456 173.6 195.96 173.264 196.308C172.928 196.656 172.472 196.83 171.896 196.83C171.14 196.83 170.54 196.566 170.096 196.038C169.64 195.51 169.412 194.796 169.412 193.896V188.874ZM163.04 198L166.226 188.874H164.75L163.49 192.726L162.158 196.884C162.05 196.368 161.6 194.982 160.808 192.726L159.512 188.874H158.036L161.294 198H163.04ZM156.202 198V188.874H154.78V198H156.202ZM156.166 186.678C156.334 186.498 156.418 186.276 156.418 186.012C156.418 185.748 156.334 185.526 156.166 185.346C155.986 185.166 155.764 185.076 155.5 185.076C155.236 185.076 155.014 185.166 154.834 185.346C154.654 185.526 154.564 185.748 154.564 186.012C154.564 186.276 154.654 186.498 154.834 186.678C155.014 186.846 155.236 186.93 155.5 186.93C155.764 186.93 155.986 186.846 156.166 186.678ZM148.599 196.848C147.855 196.848 147.225 196.572 146.709 196.02C146.181 195.468 145.917 194.586 145.917 193.374C145.917 192.222 146.187 191.376 146.727 190.836C147.267 190.296 147.861 190.026 148.509 190.026C149.265 190.026 149.895 190.332 150.399 190.944C150.891 191.544 151.137 192.408 151.137 193.536C151.137 194.52 150.897 195.318 150.417 195.93C149.937 196.542 149.331 196.848 148.599 196.848ZM145.917 185.274H144.495V198H145.917V196.65C146.565 197.646 147.501 198.144 148.725 198.144C149.937 198.144 150.891 197.694 151.587 196.794C152.271 195.894 152.613 194.802 152.613 193.518C152.613 192.09 152.247 190.938 151.515 190.062C150.783 189.174 149.841 188.73 148.689 188.73C147.501 188.73 146.577 189.24 145.917 190.26V185.274ZM138.152 198.162C139.46 198.162 140.498 197.724 141.266 196.848C142.022 195.96 142.4 194.844 142.4 193.5C142.4 192.144 142.01 191.016 141.23 190.116C140.438 189.204 139.412 188.748 138.152 188.748C136.772 188.748 135.71 189.192 134.966 190.08C134.21 190.968 133.832 192.096 133.832 193.464C133.832 194.82 134.216 195.942 134.984 196.83C135.752 197.718 136.808 198.162 138.152 198.162ZM138.152 190.008C139.016 190.008 139.694 190.344 140.186 191.016C140.678 191.688 140.924 192.51 140.924 193.482C140.924 194.43 140.672 195.24 140.168 195.912C139.664 196.572 138.992 196.902 138.152 196.902C137.24 196.902 136.538 196.578 136.046 195.93C135.554 195.27 135.308 194.454 135.308 193.482C135.308 192.474 135.542 191.646 136.01 190.998C136.478 190.338 137.192 190.008 138.152 190.008ZM130.348 188.874V190.476C129.868 189.348 129.04 188.784 127.864 188.784C127.648 188.784 127.48 188.796 127.36 188.82V190.224C127.612 190.14 127.87 190.098 128.134 190.098C128.77 190.098 129.298 190.392 129.718 190.98C130.138 191.568 130.348 192.246 130.348 193.014V198H131.77L131.752 188.874H130.348ZM125.809 198V188.874H124.387V198H125.809ZM125.773 186.678C125.941 186.498 126.025 186.276 126.025 186.012C126.025 185.748 125.941 185.526 125.773 185.346C125.593 185.166 125.371 185.076 125.107 185.076C124.843 185.076 124.621 185.166 124.441 185.346C124.261 185.526 124.171 185.748 124.171 186.012C124.171 186.276 124.261 186.498 124.441 186.678C124.621 186.846 124.843 186.93 125.107 186.93C125.371 186.93 125.593 186.846 125.773 186.678ZM116.766 193.788H118.35C119.118 193.788 119.694 193.938 120.078 194.238C120.462 194.538 120.654 194.916 120.654 195.372C120.654 195.828 120.504 196.2 120.204 196.488C119.904 196.764 119.466 196.902 118.89 196.902C118.242 196.902 117.726 196.722 117.342 196.362C116.958 195.99 116.766 195.522 116.766 194.958V193.788ZM121.482 190.782V189.36C120.798 188.94 119.898 188.73 118.782 188.73C116.49 188.73 115.344 189.894 115.344 192.222V198H116.748V196.92C117.216 197.7 118.068 198.09 119.304 198.09C120.156 198.09 120.846 197.838 121.374 197.334C121.89 196.83 122.148 196.194 122.148 195.426C122.148 194.55 121.818 193.872 121.158 193.392C120.486 192.9 119.574 192.654 118.422 192.654H116.766V192.186C116.766 191.466 116.928 190.926 117.252 190.566C117.576 190.194 118.122 190.008 118.89 190.008C119.862 190.008 120.726 190.266 121.482 190.782Z" fill="white"/>
<path id="Fale com a equipe iti&#226;&#128;&#168;pelo chat no app ;)" d="M683.004 217.429H688.38V221.083H683.697V223.666H688.38V229H691.635V214.846H683.004V217.429ZM675.846 224.632H676.833C677.351 224.632 677.75 224.744 678.03 224.968C678.31 225.192 678.45 225.479 678.45 225.829C678.45 226.543 678.037 226.9 677.211 226.9C676.777 226.9 676.441 226.767 676.203 226.501C675.965 226.235 675.846 225.871 675.846 225.409V224.632ZM680.823 221.629V218.878C679.983 218.402 678.772 218.164 677.19 218.164C675.678 218.164 674.551 218.493 673.809 219.151C673.067 219.795 672.696 220.803 672.696 222.175V229H675.699V227.698C676.147 228.608 677.029 229.063 678.345 229.063C679.381 229.063 680.193 228.769 680.781 228.181C681.355 227.593 681.642 226.858 681.642 225.976C681.642 224.954 681.271 224.163 680.529 223.603C679.773 223.029 678.66 222.742 677.19 222.742H675.846V222.007C675.846 221.111 676.441 220.663 677.631 220.663C678.779 220.663 679.843 220.985 680.823 221.629ZM670.184 229V214.153H667.118V229H670.184ZM658.332 222.7V222.448C658.43 221.202 658.976 220.579 659.97 220.579C660.46 220.579 660.894 220.761 661.272 221.125C661.65 221.475 661.902 222 662.028 222.7H658.332ZM656.127 225.829V228.391C656.855 228.867 657.968 229.105 659.466 229.105C661.216 229.105 662.581 228.601 663.561 227.593C664.527 226.571 665.01 225.262 665.01 223.666C665.01 221.972 664.541 220.649 663.603 219.697C662.651 218.731 661.482 218.248 660.096 218.248C658.668 218.248 657.541 218.668 656.715 219.508C655.889 220.334 655.476 221.573 655.476 223.225C655.476 223.547 655.532 224.1 655.644 224.884H661.902C661.692 225.472 661.328 225.927 660.81 226.249C660.292 226.571 659.669 226.732 658.941 226.732C657.863 226.732 656.925 226.431 656.127 225.829ZM645.455 223.708C645.399 224.646 645.119 225.374 644.615 225.892C644.111 226.41 643.446 226.669 642.62 226.669C641.738 226.669 640.891 226.424 640.079 225.934V228.496C640.905 228.944 641.899 229.168 643.061 229.168C644.657 229.168 645.973 228.664 647.009 227.656C648.045 226.634 648.563 225.318 648.563 223.708C648.535 222.112 648.017 220.796 647.009 219.76C646.001 218.71 644.622 218.185 642.872 218.185C641.794 218.185 640.863 218.388 640.079 218.794V221.419C640.821 220.957 641.647 220.726 642.557 220.726C643.411 220.726 644.104 220.985 644.636 221.503C645.168 222.007 645.441 222.742 645.455 223.708ZM633.49 229.168C635.156 229.168 636.444 228.671 637.354 227.677C638.264 226.669 638.719 225.381 638.719 223.813C638.719 222.175 638.243 220.831 637.291 219.781C636.339 218.717 635.072 218.185 633.49 218.185C631.838 218.185 630.557 218.696 629.647 219.718C628.737 220.74 628.282 222.042 628.282 223.624C628.282 225.234 628.744 226.564 629.668 227.614C630.578 228.65 631.852 229.168 633.49 229.168ZM633.511 220.6C634.183 220.6 634.687 220.887 635.023 221.461C635.359 222.035 635.527 222.777 635.527 223.687C635.527 224.597 635.359 225.346 635.023 225.934C634.673 226.508 634.155 226.795 633.469 226.795C632.797 226.795 632.3 226.515 631.978 225.955C631.642 225.381 631.474 224.639 631.474 223.729C631.474 221.643 632.153 220.6 633.511 220.6ZM623.213 218.353V220.012C622.625 218.836 621.624 218.248 620.21 218.248C618.712 218.248 617.718 218.92 617.228 220.264C616.99 219.634 616.591 219.144 616.031 218.794C615.471 218.43 614.813 218.248 614.057 218.248C613.007 218.248 612.181 218.584 611.579 219.256C610.963 219.914 610.655 220.887 610.655 222.175V229H613.721V222.679C613.721 222.077 613.84 221.601 614.078 221.251C614.316 220.901 614.659 220.726 615.107 220.726C615.583 220.726 616.01 220.922 616.388 221.314C616.752 221.692 616.934 222.378 616.934 223.372V229H620V222.679C620 222.077 620.119 221.601 620.357 221.251C620.595 220.901 620.938 220.726 621.386 220.726C621.862 220.726 622.289 220.922 622.667 221.314C623.031 221.692 623.213 222.378 623.213 223.372V229H626.279V218.353H623.213ZM597.711 224.632H598.698C599.216 224.632 599.615 224.744 599.895 224.968C600.175 225.192 600.315 225.479 600.315 225.829C600.315 226.543 599.902 226.9 599.076 226.9C598.642 226.9 598.306 226.767 598.068 226.501C597.83 226.235 597.711 225.871 597.711 225.409V224.632ZM602.688 221.629V218.878C601.848 218.402 600.637 218.164 599.055 218.164C597.543 218.164 596.416 218.493 595.674 219.151C594.932 219.795 594.561 220.803 594.561 222.175V229H597.564V227.698C598.012 228.608 598.894 229.063 600.21 229.063C601.246 229.063 602.058 228.769 602.646 228.181C603.22 227.593 603.507 226.858 603.507 225.976C603.507 224.954 603.136 224.163 602.394 223.603C601.638 223.029 600.525 222.742 599.055 222.742H597.711V222.007C597.711 221.111 598.306 220.663 599.496 220.663C600.644 220.663 601.708 220.985 602.688 221.629ZM580.751 222.7V222.448C580.849 221.202 581.395 220.579 582.389 220.579C582.879 220.579 583.313 220.761 583.691 221.125C584.069 221.475 584.321 222 584.447 222.7H580.751ZM578.546 225.829V228.391C579.274 228.867 580.387 229.105 581.885 229.105C583.635 229.105 585 228.601 585.98 227.593C586.946 226.571 587.429 225.262 587.429 223.666C587.429 221.972 586.96 220.649 586.022 219.697C585.07 218.731 583.901 218.248 582.515 218.248C581.087 218.248 579.96 218.668 579.134 219.508C578.308 220.334 577.895 221.573 577.895 223.225C577.895 223.547 577.951 224.1 578.063 224.884H584.321C584.111 225.472 583.747 225.927 583.229 226.249C582.711 226.571 582.088 226.732 581.36 226.732C580.282 226.732 579.344 226.431 578.546 225.829ZM570.814 226.564C570.114 226.564 569.547 226.291 569.113 225.745C568.679 225.199 568.462 224.471 568.462 223.561C568.462 222.679 568.7 221.993 569.176 221.503C569.638 221.013 570.191 220.768 570.835 220.768C571.479 220.768 572.025 221.027 572.473 221.545C572.907 222.063 573.124 222.784 573.124 223.708C573.124 224.562 572.9 225.255 572.452 225.787C572.004 226.305 571.458 226.564 570.814 226.564ZM568.462 218.353H565.396V232.927H568.462V227.341C569.176 228.531 570.24 229.126 571.654 229.126C573.082 229.126 574.202 228.608 575.014 227.572C575.826 226.536 576.232 225.227 576.232 223.645C576.232 221.979 575.812 220.663 574.972 219.697C574.132 218.717 573.019 218.227 571.633 218.227C570.247 218.227 569.19 218.815 568.462 219.991V218.353ZM556.275 218.353H553.209V229H556.275V227.299C556.835 228.489 557.913 229.084 559.509 229.084C560.601 229.084 561.455 228.783 562.071 228.181C562.673 227.565 562.974 226.662 562.974 225.472V218.353H559.908V224.779C559.908 226.025 559.362 226.648 558.27 226.648C556.94 226.648 556.275 225.759 556.275 223.981V218.353ZM550.582 229V218.353H547.516V229H550.582ZM550.309 216.526C550.659 216.176 550.834 215.756 550.834 215.266C550.834 214.776 550.659 214.356 550.309 214.006C549.959 213.656 549.539 213.481 549.049 213.481C548.559 213.481 548.139 213.656 547.789 214.006C547.439 214.356 547.264 214.776 547.264 215.266C547.264 215.756 547.439 216.176 547.789 216.526C548.139 216.876 548.559 217.051 549.049 217.051C549.539 217.051 549.959 216.876 550.309 216.526ZM539.424 226.564C538.752 226.564 538.206 226.312 537.786 225.808C537.366 225.29 537.156 224.59 537.156 223.708C537.156 222.742 537.373 222.014 537.807 221.524C538.227 221.02 538.766 220.768 539.424 220.768C540.068 220.768 540.628 221.013 541.104 221.503C541.58 221.993 541.818 222.679 541.818 223.561C541.818 224.471 541.594 225.199 541.146 225.745C540.698 226.291 540.124 226.564 539.424 226.564ZM541.818 218.353V219.991C541.076 218.815 540.005 218.227 538.605 218.227C537.233 218.227 536.134 218.717 535.308 219.697C534.468 220.663 534.048 221.979 534.048 223.645C534.048 225.227 534.454 226.536 535.266 227.572C536.064 228.608 537.177 229.126 538.605 229.126C540.047 229.126 541.118 228.559 541.818 227.425V232.927H544.884V218.353H541.818ZM525.893 222.7V222.448C525.991 221.202 526.537 220.579 527.531 220.579C528.021 220.579 528.455 220.761 528.833 221.125C529.211 221.475 529.463 222 529.589 222.7H525.893ZM523.688 225.829V228.391C524.416 228.867 525.529 229.105 527.027 229.105C528.777 229.105 530.142 228.601 531.122 227.593C532.088 226.571 532.571 225.262 532.571 223.666C532.571 221.972 532.102 220.649 531.164 219.697C530.212 218.731 529.043 218.248 527.657 218.248C526.229 218.248 525.102 218.668 524.276 219.508C523.45 220.334 523.037 221.573 523.037 223.225C523.037 223.547 523.093 224.1 523.205 224.884H529.463C529.253 225.472 528.889 225.927 528.371 226.249C527.853 226.571 527.23 226.732 526.502 226.732C525.424 226.732 524.486 226.431 523.688 225.829ZM515.493 229V218.353H512.427V229H515.493ZM515.22 216.526C515.57 216.176 515.745 215.756 515.745 215.266C515.745 214.776 515.57 214.356 515.22 214.006C514.87 213.656 514.45 213.481 513.96 213.481C513.47 213.481 513.05 213.656 512.7 214.006C512.35 214.356 512.175 214.776 512.175 215.266C512.175 215.756 512.35 216.176 512.7 216.526C513.05 216.876 513.47 217.051 513.96 217.051C514.45 217.051 514.87 216.876 515.22 216.526ZM506.246 220.6V225.493C506.246 225.871 506.141 226.158 505.931 226.354C505.707 226.55 505.42 226.648 505.07 226.648C504.51 226.648 504.013 226.508 503.579 226.228V228.769C504.097 228.993 504.797 229.105 505.679 229.105C508.101 229.105 509.312 227.894 509.312 225.472V220.6H510.845V218.353H509.312V215.833H506.246V218.353H503.768V220.6H506.246ZM501.589 229V218.353H498.523V229H501.589ZM501.316 216.526C501.666 216.176 501.841 215.756 501.841 215.266C501.841 214.776 501.666 214.356 501.316 214.006C500.966 213.656 500.546 213.481 500.056 213.481C499.566 213.481 499.146 213.656 498.796 214.006C498.446 214.356 498.271 214.776 498.271 215.266C498.271 215.756 498.446 216.176 498.796 216.526C499.146 216.876 499.566 217.051 500.056 217.051C500.546 217.051 500.966 216.876 501.316 216.526ZM686.28 251.564C685.608 251.564 685.062 251.312 684.642 250.808C684.222 250.29 684.012 249.59 684.012 248.708C684.012 247.742 684.229 247.014 684.663 246.524C685.083 246.02 685.622 245.768 686.28 245.768C686.924 245.768 687.484 246.013 687.96 246.503C688.436 246.993 688.674 247.679 688.674 248.561C688.674 249.471 688.45 250.199 688.002 250.745C687.554 251.291 686.98 251.564 686.28 251.564ZM688.674 243.353V244.991C687.932 243.815 686.861 243.227 685.461 243.227C684.089 243.227 682.99 243.717 682.164 244.697C681.324 245.663 680.904 246.979 680.904 248.645C680.904 250.227 681.31 251.536 682.122 252.572C682.92 253.608 684.033 254.126 685.461 254.126C686.903 254.126 687.974 253.559 688.674 252.425V257.927H691.74V243.353H688.674ZM672.749 247.7V247.448C672.847 246.202 673.393 245.579 674.387 245.579C674.877 245.579 675.311 245.761 675.689 246.125C676.067 246.475 676.319 247 676.445 247.7H672.749ZM670.544 250.829V253.391C671.272 253.867 672.385 254.105 673.883 254.105C675.633 254.105 676.998 253.601 677.978 252.593C678.944 251.571 679.427 250.262 679.427 248.666C679.427 246.972 678.958 245.649 678.02 244.697C677.068 243.731 675.899 243.248 674.513 243.248C673.085 243.248 671.958 243.668 671.132 244.508C670.306 245.334 669.893 246.573 669.893 248.225C669.893 248.547 669.949 249.1 670.061 249.884H676.319C676.109 250.472 675.745 250.927 675.227 251.249C674.709 251.571 674.086 251.732 673.358 251.732C672.28 251.732 671.342 251.431 670.544 250.829ZM667.6 254V239.153H664.534V254H667.6ZM657.197 254.168C658.863 254.168 660.151 253.671 661.061 252.677C661.971 251.669 662.426 250.381 662.426 248.813C662.426 247.175 661.95 245.831 660.998 244.781C660.046 243.717 658.779 243.185 657.197 243.185C655.545 243.185 654.264 243.696 653.354 244.718C652.444 245.74 651.989 247.042 651.989 248.624C651.989 250.234 652.451 251.564 653.375 252.614C654.285 253.65 655.559 254.168 657.197 254.168ZM657.218 245.6C657.89 245.6 658.394 245.887 658.73 246.461C659.066 247.035 659.234 247.777 659.234 248.687C659.234 249.597 659.066 250.346 658.73 250.934C658.38 251.508 657.862 251.795 657.176 251.795C656.504 251.795 656.007 251.515 655.685 250.955C655.349 250.381 655.181 249.639 655.181 248.729C655.181 246.643 655.86 245.6 657.218 245.6ZM642.153 248.708C642.097 249.646 641.817 250.374 641.313 250.892C640.809 251.41 640.144 251.669 639.318 251.669C638.436 251.669 637.589 251.424 636.777 250.934V253.496C637.603 253.944 638.597 254.168 639.759 254.168C641.355 254.168 642.671 253.664 643.707 252.656C644.743 251.634 645.261 250.318 645.261 248.708C645.233 247.112 644.715 245.796 643.707 244.76C642.699 243.71 641.32 243.185 639.57 243.185C638.492 243.185 637.561 243.388 636.777 243.794V246.419C637.519 245.957 638.345 245.726 639.255 245.726C640.109 245.726 640.802 245.985 641.334 246.503C641.866 247.007 642.139 247.742 642.153 248.708ZM631.826 239.153V245.159C631.28 243.885 630.216 243.248 628.634 243.248C627.598 243.248 626.758 243.577 626.114 244.235C625.456 244.893 625.127 245.887 625.127 247.217V254H628.193V247.7C628.193 247.084 628.347 246.601 628.655 246.251C628.963 245.901 629.362 245.726 629.852 245.726C630.062 245.726 630.265 245.761 630.461 245.831C630.643 245.887 630.846 245.999 631.07 246.167C631.294 246.321 631.476 246.594 631.616 246.986C631.756 247.364 631.826 247.826 631.826 248.372V254H634.892V239.153H631.826ZM617.44 249.632H618.427C618.945 249.632 619.344 249.744 619.624 249.968C619.904 250.192 620.044 250.479 620.044 250.829C620.044 251.543 619.631 251.9 618.805 251.9C618.371 251.9 618.035 251.767 617.797 251.501C617.559 251.235 617.44 250.871 617.44 250.409V249.632ZM622.417 246.629V243.878C621.577 243.402 620.366 243.164 618.784 243.164C617.272 243.164 616.145 243.493 615.403 244.151C614.661 244.795 614.29 245.803 614.29 247.175V254H617.293V252.698C617.741 253.608 618.623 254.063 619.939 254.063C620.975 254.063 621.787 253.769 622.375 253.181C622.949 252.593 623.236 251.858 623.236 250.976C623.236 249.954 622.865 249.163 622.123 248.603C621.367 248.029 620.254 247.742 618.784 247.742H617.44V247.007C617.44 246.111 618.035 245.663 619.225 245.663C620.373 245.663 621.437 245.985 622.417 246.629ZM608.334 245.6V250.493C608.334 250.871 608.229 251.158 608.019 251.354C607.795 251.55 607.508 251.648 607.158 251.648C606.598 251.648 606.101 251.508 605.667 251.228V253.769C606.185 253.993 606.885 254.105 607.767 254.105C610.189 254.105 611.4 252.894 611.4 250.472V245.6H612.933V243.353H611.4V240.833H608.334V243.353H605.856V245.6H608.334ZM595.466 243.353V245.159C595.2 244.571 594.794 244.109 594.248 243.773C593.688 243.423 593.023 243.248 592.253 243.248C591.161 243.248 590.307 243.577 589.691 244.235C589.075 244.879 588.767 245.831 588.767 247.091V254H591.833V247.658C591.833 247.028 591.98 246.552 592.274 246.23C592.568 245.894 592.981 245.726 593.513 245.726C594.073 245.726 594.542 245.95 594.92 246.398C595.284 246.832 595.466 247.49 595.466 248.372V254H598.532V243.353H595.466ZM581.646 254.168C583.312 254.168 584.6 253.671 585.51 252.677C586.42 251.669 586.875 250.381 586.875 248.813C586.875 247.175 586.399 245.831 585.447 244.781C584.495 243.717 583.228 243.185 581.646 243.185C579.994 243.185 578.713 243.696 577.803 244.718C576.893 245.74 576.438 247.042 576.438 248.624C576.438 250.234 576.9 251.564 577.824 252.614C578.734 253.65 580.008 254.168 581.646 254.168ZM581.667 245.6C582.339 245.6 582.843 245.887 583.179 246.461C583.515 247.035 583.683 247.777 583.683 248.687C583.683 249.597 583.515 250.346 583.179 250.934C582.829 251.508 582.311 251.795 581.625 251.795C580.953 251.795 580.456 251.515 580.134 250.955C579.798 250.381 579.63 249.639 579.63 248.729C579.63 246.643 580.309 245.6 581.667 245.6ZM563.914 249.632H564.901C565.419 249.632 565.818 249.744 566.098 249.968C566.378 250.192 566.518 250.479 566.518 250.829C566.518 251.543 566.105 251.9 565.279 251.9C564.845 251.9 564.509 251.767 564.271 251.501C564.033 251.235 563.914 250.871 563.914 250.409V249.632ZM568.891 246.629V243.878C568.051 243.402 566.84 243.164 565.258 243.164C563.746 243.164 562.619 243.493 561.877 244.151C561.135 244.795 560.764 245.803 560.764 247.175V254H563.767V252.698C564.215 253.608 565.097 254.063 566.413 254.063C567.449 254.063 568.261 253.769 568.849 253.181C569.423 252.593 569.71 251.858 569.71 250.976C569.71 249.954 569.339 249.163 568.597 248.603C567.841 248.029 566.728 247.742 565.258 247.742H563.914V247.007C563.914 246.111 564.509 245.663 565.699 245.663C566.847 245.663 567.911 245.985 568.891 246.629ZM552.897 251.564C552.225 251.564 551.679 251.312 551.259 250.808C550.839 250.29 550.629 249.59 550.629 248.708C550.629 247.742 550.846 247.014 551.28 246.524C551.7 246.02 552.239 245.768 552.897 245.768C553.541 245.768 554.101 246.013 554.577 246.503C555.053 246.993 555.291 247.679 555.291 248.561C555.291 249.471 555.067 250.199 554.619 250.745C554.171 251.291 553.597 251.564 552.897 251.564ZM555.291 243.353V244.991C554.549 243.815 553.478 243.227 552.078 243.227C550.706 243.227 549.607 243.717 548.781 244.697C547.941 245.663 547.521 246.979 547.521 248.645C547.521 250.227 547.927 251.536 548.739 252.572C549.537 253.608 550.65 254.126 552.078 254.126C553.52 254.126 554.591 253.559 555.291 252.425V257.927H558.357V243.353H555.291ZM540.059 251.564C539.387 251.564 538.841 251.312 538.421 250.808C538.001 250.29 537.791 249.59 537.791 248.708C537.791 247.742 538.008 247.014 538.442 246.524C538.862 246.02 539.401 245.768 540.059 245.768C540.703 245.768 541.263 246.013 541.739 246.503C542.215 246.993 542.453 247.679 542.453 248.561C542.453 249.471 542.229 250.199 541.781 250.745C541.333 251.291 540.759 251.564 540.059 251.564ZM542.453 243.353V244.991C541.711 243.815 540.64 243.227 539.24 243.227C537.868 243.227 536.769 243.717 535.943 244.697C535.103 245.663 534.683 246.979 534.683 248.645C534.683 250.227 535.089 251.536 535.901 252.572C536.699 253.608 537.812 254.126 539.24 254.126C540.682 254.126 541.753 253.559 542.453 252.425V257.927H545.519V243.353H542.453ZM526.633 246.524C526.983 246.16 527.158 245.719 527.158 245.201C527.158 244.683 526.983 244.249 526.633 243.899C526.269 243.535 525.828 243.353 525.31 243.353C524.792 243.353 524.358 243.535 524.008 243.899C523.644 244.249 523.462 244.683 523.462 245.201C523.462 245.719 523.644 246.16 524.008 246.524C524.358 246.874 524.792 247.049 525.31 247.049C525.828 247.049 526.269 246.874 526.633 246.524ZM528.838 256.667L526.717 251.186H523.336L526.192 256.667H528.838ZM519.558 239.153C517.36 241.785 516.261 244.921 516.261 248.561C516.261 252.089 517.402 255.274 519.684 258.116H522.939C521.819 256.744 520.965 255.197 520.377 253.475C519.789 251.739 519.495 250.129 519.495 248.645C519.495 247.119 519.782 245.467 520.356 243.689C520.916 241.911 521.707 240.399 522.729 239.153H519.558Z" fill="white"/>
<path id="0800 720 3670" d="M403.265 222.07C403.265 219.886 402.845 218.157 402.005 216.883C401.165 215.609 399.919 214.972 398.267 214.972C396.615 214.972 395.369 215.609 394.529 216.883C393.675 218.157 393.248 219.886 393.248 222.07C393.248 224.226 393.675 225.948 394.529 227.236C395.369 228.524 396.615 229.168 398.267 229.168C399.919 229.168 401.165 228.531 402.005 227.257C402.845 225.969 403.265 224.24 403.265 222.07ZM398.267 217.702C399.513 217.702 400.136 219.158 400.136 222.07C400.136 224.982 399.513 226.438 398.267 226.438C397.007 226.438 396.377 224.982 396.377 222.07C396.377 219.158 397.007 217.702 398.267 217.702ZM386.825 226.774C386.181 226.774 385.698 226.62 385.376 226.312C385.04 225.99 384.872 225.605 384.872 225.157C384.872 224.653 385.047 224.24 385.397 223.918C385.733 223.596 386.209 223.435 386.825 223.435C387.455 223.435 387.931 223.61 388.253 223.96C388.561 224.31 388.715 224.723 388.715 225.199C388.715 225.633 388.568 226.004 388.274 226.312C387.966 226.62 387.483 226.774 386.825 226.774ZM386.846 217.45C387.406 217.45 387.819 217.611 388.085 217.933C388.351 218.241 388.484 218.619 388.484 219.067C388.484 219.599 388.323 220.012 388.001 220.306C387.679 220.6 387.273 220.747 386.783 220.747C386.307 220.747 385.908 220.6 385.586 220.306C385.264 220.012 385.103 219.599 385.103 219.067C385.103 217.989 385.684 217.45 386.846 217.45ZM383.759 222.007C382.457 222.609 381.806 223.666 381.806 225.178C381.806 226.382 382.275 227.355 383.213 228.097C384.137 228.839 385.348 229.21 386.846 229.21C388.358 229.21 389.562 228.86 390.458 228.16C391.34 227.446 391.781 226.487 391.781 225.283C391.781 223.799 391.116 222.728 389.786 222.07C390.976 221.384 391.571 220.397 391.571 219.109C391.571 217.821 391.13 216.82 390.248 216.106C389.352 215.378 388.218 215.014 386.846 215.014C385.418 215.014 384.263 215.357 383.381 216.043C382.485 216.729 382.037 217.751 382.037 219.109C382.037 220.369 382.611 221.335 383.759 222.007ZM380.337 222.07C380.337 219.886 379.917 218.157 379.077 216.883C378.237 215.609 376.991 214.972 375.339 214.972C373.687 214.972 372.441 215.609 371.601 216.883C370.747 218.157 370.32 219.886 370.32 222.07C370.32 224.226 370.747 225.948 371.601 227.236C372.441 228.524 373.687 229.168 375.339 229.168C376.991 229.168 378.237 228.531 379.077 227.257C379.917 225.969 380.337 224.24 380.337 222.07ZM375.339 217.702C376.585 217.702 377.208 219.158 377.208 222.07C377.208 224.982 376.585 226.438 375.339 226.438C374.079 226.438 373.449 224.982 373.449 222.07C373.449 219.158 374.079 217.702 375.339 217.702ZM368.853 222.07C368.853 219.886 368.433 218.157 367.593 216.883C366.753 215.609 365.507 214.972 363.855 214.972C362.203 214.972 360.957 215.609 360.117 216.883C359.263 218.157 358.836 219.886 358.836 222.07C358.836 224.226 359.263 225.948 360.117 227.236C360.957 228.524 362.203 229.168 363.855 229.168C365.507 229.168 366.753 228.531 367.593 227.257C368.433 225.969 368.853 224.24 368.853 222.07ZM363.855 217.702C365.101 217.702 365.724 219.158 365.724 222.07C365.724 224.982 365.101 226.438 363.855 226.438C362.595 226.438 361.965 224.982 361.965 222.07C361.965 219.158 362.595 217.702 363.855 217.702ZM352.434 215.245H343.194V217.849L348.528 229H351.762L346.407 217.849H352.434V215.245ZM337.85 226.396H332.978V229H342.134V226.627C340.622 225.591 339.292 224.443 338.144 223.183C336.982 221.923 336.401 220.81 336.401 219.844C336.401 219.256 336.576 218.794 336.926 218.458C337.276 218.108 337.808 217.933 338.522 217.933C339.712 217.933 340.839 218.374 341.903 219.256V216.295C341.441 215.959 340.839 215.672 340.097 215.434C339.355 215.196 338.627 215.077 337.913 215.077C336.485 215.077 335.351 215.455 334.511 216.211C333.657 216.953 333.23 217.996 333.23 219.34C333.23 221.762 334.77 224.114 337.85 226.396ZM331.508 222.07C331.508 219.886 331.088 218.157 330.248 216.883C329.408 215.609 328.162 214.972 326.51 214.972C324.858 214.972 323.612 215.609 322.772 216.883C321.918 218.157 321.491 219.886 321.491 222.07C321.491 224.226 321.918 225.948 322.772 227.236C323.612 228.524 324.858 229.168 326.51 229.168C328.162 229.168 329.408 228.531 330.248 227.257C331.088 225.969 331.508 224.24 331.508 222.07ZM326.51 217.702C327.756 217.702 328.379 219.158 328.379 222.07C328.379 224.982 327.756 226.438 326.51 226.438C325.25 226.438 324.62 224.982 324.62 222.07C324.62 219.158 325.25 217.702 326.51 217.702ZM314.333 218.71V215.854C313.297 215.336 312.254 215.077 311.204 215.077C309.72 215.077 308.544 215.434 307.676 216.148C306.808 216.848 306.374 217.765 306.374 218.899C306.374 220.453 307.081 221.524 308.495 222.112C306.899 222.49 306.101 223.526 306.101 225.22C306.101 226.396 306.549 227.341 307.445 228.055C308.327 228.755 309.566 229.105 311.162 229.105C312.66 229.105 313.899 228.867 314.879 228.391V225.451C313.759 226.067 312.604 226.375 311.414 226.375C310.728 226.375 310.196 226.228 309.818 225.934C309.426 225.64 309.23 225.269 309.23 224.821C309.23 223.799 310.175 223.288 312.065 223.288H312.8V220.768H312.065C311.323 220.768 310.714 220.642 310.238 220.39C309.762 220.138 309.524 219.76 309.524 219.256C309.524 218.29 310.154 217.807 311.414 217.807C312.38 217.807 313.353 218.108 314.333 218.71ZM299.477 226.69C298.931 226.69 298.504 226.501 298.196 226.123C297.888 225.745 297.734 225.241 297.734 224.611C297.734 224.037 297.888 223.582 298.196 223.246C298.49 222.896 298.91 222.721 299.456 222.721C300.212 222.721 300.877 223.022 301.451 223.624C301.297 225.668 300.639 226.69 299.477 226.69ZM295.676 215.35V218.185C296.222 217.891 296.859 217.744 297.587 217.744C298.581 217.744 299.4 218.052 300.044 218.668C300.674 219.27 301.101 220.082 301.325 221.104C300.569 220.46 299.666 220.138 298.616 220.138C297.412 220.138 296.446 220.537 295.718 221.335C294.976 222.133 294.605 223.204 294.605 224.548C294.605 225.934 295.046 227.096 295.928 228.034C296.796 228.958 297.986 229.42 299.498 229.42C301.192 229.42 302.473 228.818 303.341 227.614C304.195 226.396 304.622 224.765 304.622 222.721C304.622 220.383 303.985 218.514 302.711 217.114C301.423 215.714 299.799 215.014 297.839 215.014C297.097 215.014 296.376 215.126 295.676 215.35ZM293.658 215.245H284.418V217.849L289.752 229H292.986L287.631 217.849H293.658V215.245ZM283.253 222.07C283.253 219.886 282.833 218.157 281.993 216.883C281.153 215.609 279.907 214.972 278.255 214.972C276.603 214.972 275.357 215.609 274.517 216.883C273.663 218.157 273.236 219.886 273.236 222.07C273.236 224.226 273.663 225.948 274.517 227.236C275.357 228.524 276.603 229.168 278.255 229.168C279.907 229.168 281.153 228.531 281.993 227.257C282.833 225.969 283.253 224.24 283.253 222.07ZM278.255 217.702C279.501 217.702 280.124 219.158 280.124 222.07C280.124 224.982 279.501 226.438 278.255 226.438C276.995 226.438 276.365 224.982 276.365 222.07C276.365 219.158 276.995 217.702 278.255 217.702Z" fill="white"/>
<path id="0800 720 3690" d="M188.265 222.07C188.265 219.886 187.845 218.157 187.005 216.883C186.165 215.609 184.919 214.972 183.267 214.972C181.615 214.972 180.369 215.609 179.529 216.883C178.675 218.157 178.248 219.886 178.248 222.07C178.248 224.226 178.675 225.948 179.529 227.236C180.369 228.524 181.615 229.168 183.267 229.168C184.919 229.168 186.165 228.531 187.005 227.257C187.845 225.969 188.265 224.24 188.265 222.07ZM183.267 217.702C184.513 217.702 185.136 219.158 185.136 222.07C185.136 224.982 184.513 226.438 183.267 226.438C182.007 226.438 181.377 224.982 181.377 222.07C181.377 219.158 182.007 217.702 183.267 217.702ZM171.825 226.774C171.181 226.774 170.698 226.62 170.376 226.312C170.04 225.99 169.872 225.605 169.872 225.157C169.872 224.653 170.047 224.24 170.397 223.918C170.733 223.596 171.209 223.435 171.825 223.435C172.455 223.435 172.931 223.61 173.253 223.96C173.561 224.31 173.715 224.723 173.715 225.199C173.715 225.633 173.568 226.004 173.274 226.312C172.966 226.62 172.483 226.774 171.825 226.774ZM171.846 217.45C172.406 217.45 172.819 217.611 173.085 217.933C173.351 218.241 173.484 218.619 173.484 219.067C173.484 219.599 173.323 220.012 173.001 220.306C172.679 220.6 172.273 220.747 171.783 220.747C171.307 220.747 170.908 220.6 170.586 220.306C170.264 220.012 170.103 219.599 170.103 219.067C170.103 217.989 170.684 217.45 171.846 217.45ZM168.759 222.007C167.457 222.609 166.806 223.666 166.806 225.178C166.806 226.382 167.275 227.355 168.213 228.097C169.137 228.839 170.348 229.21 171.846 229.21C173.358 229.21 174.562 228.86 175.458 228.16C176.34 227.446 176.781 226.487 176.781 225.283C176.781 223.799 176.116 222.728 174.786 222.07C175.976 221.384 176.571 220.397 176.571 219.109C176.571 217.821 176.13 216.82 175.248 216.106C174.352 215.378 173.218 215.014 171.846 215.014C170.418 215.014 169.263 215.357 168.381 216.043C167.485 216.729 167.037 217.751 167.037 219.109C167.037 220.369 167.611 221.335 168.759 222.007ZM165.337 222.07C165.337 219.886 164.917 218.157 164.077 216.883C163.237 215.609 161.991 214.972 160.339 214.972C158.687 214.972 157.441 215.609 156.601 216.883C155.747 218.157 155.32 219.886 155.32 222.07C155.32 224.226 155.747 225.948 156.601 227.236C157.441 228.524 158.687 229.168 160.339 229.168C161.991 229.168 163.237 228.531 164.077 227.257C164.917 225.969 165.337 224.24 165.337 222.07ZM160.339 217.702C161.585 217.702 162.208 219.158 162.208 222.07C162.208 224.982 161.585 226.438 160.339 226.438C159.079 226.438 158.449 224.982 158.449 222.07C158.449 219.158 159.079 217.702 160.339 217.702ZM153.853 222.07C153.853 219.886 153.433 218.157 152.593 216.883C151.753 215.609 150.507 214.972 148.855 214.972C147.203 214.972 145.957 215.609 145.117 216.883C144.263 218.157 143.836 219.886 143.836 222.07C143.836 224.226 144.263 225.948 145.117 227.236C145.957 228.524 147.203 229.168 148.855 229.168C150.507 229.168 151.753 228.531 152.593 227.257C153.433 225.969 153.853 224.24 153.853 222.07ZM148.855 217.702C150.101 217.702 150.724 219.158 150.724 222.07C150.724 224.982 150.101 226.438 148.855 226.438C147.595 226.438 146.965 224.982 146.965 222.07C146.965 219.158 147.595 217.702 148.855 217.702ZM137.434 215.245H128.194V217.849L133.528 229H136.762L131.407 217.849H137.434V215.245ZM122.85 226.396H117.978V229H127.134V226.627C125.622 225.591 124.292 224.443 123.144 223.183C121.982 221.923 121.401 220.81 121.401 219.844C121.401 219.256 121.576 218.794 121.926 218.458C122.276 218.108 122.808 217.933 123.522 217.933C124.712 217.933 125.839 218.374 126.903 219.256V216.295C126.441 215.959 125.839 215.672 125.097 215.434C124.355 215.196 123.627 215.077 122.913 215.077C121.485 215.077 120.351 215.455 119.511 216.211C118.657 216.953 118.23 217.996 118.23 219.34C118.23 221.762 119.77 224.114 122.85 226.396ZM116.508 222.07C116.508 219.886 116.088 218.157 115.248 216.883C114.408 215.609 113.162 214.972 111.51 214.972C109.858 214.972 108.612 215.609 107.772 216.883C106.918 218.157 106.491 219.886 106.491 222.07C106.491 224.226 106.918 225.948 107.772 227.236C108.612 228.524 109.858 229.168 111.51 229.168C113.162 229.168 114.408 228.531 115.248 227.257C116.088 225.969 116.508 224.24 116.508 222.07ZM111.51 217.702C112.756 217.702 113.379 219.158 113.379 222.07C113.379 224.982 112.756 226.438 111.51 226.438C110.25 226.438 109.62 224.982 109.62 222.07C109.62 219.158 110.25 217.702 111.51 217.702ZM99.3328 218.71V215.854C98.2968 215.336 97.2538 215.077 96.2038 215.077C94.7198 215.077 93.5438 215.434 92.6758 216.148C91.8078 216.848 91.3738 217.765 91.3738 218.899C91.3738 220.453 92.0808 221.524 93.4948 222.112C91.8988 222.49 91.1008 223.526 91.1008 225.22C91.1008 226.396 91.5488 227.341 92.4448 228.055C93.3268 228.755 94.5658 229.105 96.1618 229.105C97.6598 229.105 98.8988 228.867 99.8788 228.391V225.451C98.7588 226.067 97.6038 226.375 96.4138 226.375C95.7278 226.375 95.1958 226.228 94.8178 225.934C94.4258 225.64 94.2298 225.269 94.2298 224.821C94.2298 223.799 95.1748 223.288 97.0648 223.288H97.7998V220.768H97.0648C96.3228 220.768 95.7138 220.642 95.2378 220.39C94.7618 220.138 94.5238 219.76 94.5238 219.256C94.5238 218.29 95.1538 217.807 96.4138 217.807C97.3798 217.807 98.3528 218.108 99.3328 218.71ZM84.4774 226.69C83.9314 226.69 83.5044 226.501 83.1964 226.123C82.8884 225.745 82.7344 225.241 82.7344 224.611C82.7344 224.037 82.8884 223.582 83.1964 223.246C83.4904 222.896 83.9104 222.721 84.4564 222.721C85.2124 222.721 85.8774 223.022 86.4514 223.624C86.2974 225.668 85.6394 226.69 84.4774 226.69ZM80.6764 215.35V218.185C81.2224 217.891 81.8594 217.744 82.5874 217.744C83.5814 217.744 84.4004 218.052 85.0444 218.668C85.6744 219.27 86.1014 220.082 86.3254 221.104C85.5694 220.46 84.6664 220.138 83.6164 220.138C82.4124 220.138 81.4464 220.537 80.7184 221.335C79.9764 222.133 79.6054 223.204 79.6054 224.548C79.6054 225.934 80.0464 227.096 80.9284 228.034C81.7964 228.958 82.9864 229.42 84.4984 229.42C86.1924 229.42 87.4734 228.818 88.3414 227.614C89.1954 226.396 89.6224 224.765 89.6224 222.721C89.6224 220.383 88.9854 218.514 87.7114 217.114C86.4234 215.714 84.7994 215.014 82.8394 215.014C82.0974 215.014 81.3764 215.126 80.6764 215.35ZM73.7441 221.734C72.9041 221.734 72.2251 221.419 71.7071 220.789C71.8751 218.801 72.5471 217.807 73.7231 217.807C74.2691 217.807 74.7101 217.982 75.0461 218.332C75.3681 218.682 75.5291 219.172 75.5291 219.802C75.5291 220.362 75.3681 220.824 75.0461 221.188C74.7241 221.552 74.2901 221.734 73.7441 221.734ZM77.6711 228.769V225.871C76.9431 226.221 76.2221 226.396 75.5081 226.396C74.4161 226.396 73.5691 226.151 72.9671 225.661C72.3651 225.157 71.9731 224.373 71.7911 223.309C72.3931 223.911 73.3031 224.212 74.5211 224.212C75.7531 224.212 76.7541 223.82 77.5241 223.036C78.2801 222.238 78.6581 221.181 78.6581 219.865C78.6581 218.493 78.2311 217.352 77.3771 216.442C76.5091 215.532 75.3401 215.077 73.8701 215.077C72.2321 215.077 70.9511 215.672 70.0271 216.862C69.0891 218.038 68.6201 219.648 68.6201 221.692C68.6201 224.198 69.2151 226.074 70.4051 227.32C71.5951 228.552 73.1841 229.168 75.1721 229.168C76.1241 229.168 76.9571 229.035 77.6711 228.769ZM67.1459 222.07C67.1459 219.886 66.7259 218.157 65.8859 216.883C65.0459 215.609 63.7999 214.972 62.1479 214.972C60.4959 214.972 59.2499 215.609 58.4099 216.883C57.5559 218.157 57.1289 219.886 57.1289 222.07C57.1289 224.226 57.5559 225.948 58.4099 227.236C59.2499 228.524 60.4959 229.168 62.1479 229.168C63.7999 229.168 65.0459 228.531 65.8859 227.257C66.7259 225.969 67.1459 224.24 67.1459 222.07ZM62.1479 217.702C63.3939 217.702 64.0169 219.158 64.0169 222.07C64.0169 224.982 63.3939 226.438 62.1479 226.438C60.8879 226.438 60.2579 224.982 60.2579 222.07C60.2579 219.158 60.8879 217.702 62.1479 217.702Z" fill="white"/>
</g>
<defs>
<filter id="filter0_d_189_410" x="-4" y="0" width="730" height="466" filterUnits="userSpaceOnUse" color-interpolation-filters="sRGB">
<feFlood flood-opacity="0" result="BackgroundImageFix"/>
<feColorMatrix in="SourceAlpha" type="matrix" values="0 0 0 0 0 0 0 0 0 0 0 0 0 0 0 0 0 0 127 0" result="hardAlpha"/>
<feOffset dy="4"/>
<feGaussianBlur stdDeviation="2"/>
<feComposite in2="hardAlpha" operator="out"/>
<feColorMatrix type="matrix" values="0 0 0 0 0 0 0 0 0 0 0 0 0 0 0 0 0 0 0.25 0"/>
<feBlend mode="normal" in2="BackgroundImageFix" result="effect1_dropShadow_189_410"/>
<feBlend mode="normal" in="SourceGraphic" in2="effect1_dropShadow_189_410" result="shape"/>
</filter>
<linearGradient id="paint0_linear_189_410" x1="63" y1="45" x2="417.637" y2="594.254" gradientUnits="userSpaceOnUse">
<stop stop-color="#FD932F"/>
<stop offset="1" stop-color="#FD0343"/>
</linearGradient>
<clipPath id="clip0_189_410">
<rect width="722" height="458" fill="white"/>
</clipPath>
</defs>
</svg>
