<svg width="722" height="458" viewBox="0 0 722 458" fill="none" xmlns="http://www.w3.org/2000/svg">
<g id="iti" clip-path="url(#clip0_77_99)">
<g id="Background" filter="url(#filter0_d_77_99)">
<path fill-rule="evenodd" clip-rule="evenodd" d="M2.72484 13.6502C0 18.998 0 25.9987 0 40V418C0 432.001 0 439.002 2.72484 444.35C5.12167 449.054 8.94619 452.878 13.6502 455.275C18.998 458 25.9987 458 40 458H682C696.001 458 703.002 458 708.35 455.275C713.054 452.878 716.878 449.054 719.275 444.35C722 439.002 722 432.001 722 418V385.833C715.029 380.168 710 364.027 710 345C710 325.973 715.029 309.832 722 304.167V40C722 25.9987 722 18.998 719.275 13.6502C716.878 8.94619 713.054 5.12167 708.35 2.72484C703.002 0 696.001 0 682 0H40C25.9987 0 18.998 0 13.6502 2.72484C8.94619 5.12167 5.12167 8.94619 2.72484 13.6502Z" fill="url(#paint0_linear_77_99)"/>
</g>
<path id="JULIO C S FREITAS" d="M50.84 407.44V404.248C51.5493 404.696 52.296 404.92 53.08 404.92C54.5173 404.92 55.236 404.155 55.236 402.624V389.156H58.764V402.624C58.764 404.397 58.316 405.741 57.42 406.656C56.524 407.571 55.292 408.028 53.724 408.028C52.548 408.028 51.5867 407.832 50.84 407.44ZM74.8054 400.776V389.128H78.3334V400.748C78.3334 403.193 77.6707 405.06 76.3454 406.348C75.0387 407.617 73.2374 408.252 70.9414 408.252C68.7014 408.252 66.9094 407.627 65.5654 406.376C64.24 405.107 63.5774 403.296 63.5774 400.944V389.128H67.1054V400.916C67.1054 402.353 67.46 403.399 68.1694 404.052C68.8787 404.687 69.8027 405.004 70.9414 405.004C73.5174 405.004 74.8054 403.595 74.8054 400.776ZM86.7944 404.864H94.1584V408H83.2664V389.128H86.7944V404.864ZM98.1729 408V389.128H101.701V408H98.1729ZM106.215 398.508C106.215 395.577 107.018 393.225 108.623 391.452C110.247 389.679 112.413 388.792 115.119 388.792C117.863 388.792 120.038 389.679 121.643 391.452C123.249 393.207 124.051 395.559 124.051 398.508C124.051 401.42 123.239 403.763 121.615 405.536C120.01 407.309 117.854 408.196 115.147 408.196C112.441 408.196 110.275 407.309 108.651 405.536C107.027 403.763 106.215 401.42 106.215 398.508ZM109.995 398.508C109.995 400.487 110.462 402.055 111.395 403.212C112.329 404.369 113.579 404.948 115.147 404.948C116.734 404.948 117.985 404.379 118.899 403.24C119.814 402.083 120.271 400.505 120.271 398.508C120.271 396.511 119.814 394.933 118.899 393.776C117.985 392.619 116.725 392.04 115.119 392.04C113.533 392.04 112.282 392.619 111.367 393.776C110.453 394.933 109.995 396.511 109.995 398.508ZM150.139 389.912V393.356C148.72 392.535 147.152 392.124 145.435 392.124C143.718 392.124 142.28 392.712 141.123 393.888C139.984 395.045 139.415 396.604 139.415 398.564C139.415 400.524 139.984 402.083 141.123 403.24C142.28 404.397 143.783 404.976 145.631 404.976C147.404 404.976 148.916 404.509 150.167 403.576V407.104C149.01 407.851 147.386 408.224 145.295 408.224C142.495 408.224 140.18 407.347 138.351 405.592C136.54 403.819 135.635 401.476 135.635 398.564C135.635 395.708 136.531 393.384 138.323 391.592C140.134 389.781 142.458 388.876 145.295 388.876C147.367 388.876 148.982 389.221 150.139 389.912ZM173.139 389.912V393.328C171.739 392.488 170.245 392.068 168.659 392.068C167.781 392.068 167.091 392.264 166.587 392.656C166.101 393.048 165.859 393.552 165.859 394.168C165.859 394.784 166.12 395.297 166.643 395.708C167.184 396.1 167.987 396.539 169.051 397.024C169.797 397.36 170.404 397.659 170.871 397.92C171.337 398.163 171.841 398.508 172.383 398.956C172.943 399.404 173.353 399.945 173.615 400.58C173.895 401.196 174.035 401.905 174.035 402.708C174.035 404.388 173.428 405.732 172.215 406.74C171.02 407.729 169.443 408.224 167.483 408.224C165.355 408.224 163.591 407.823 162.191 407.02V403.408C163.796 404.565 165.551 405.144 167.455 405.144C168.313 405.144 169.004 404.939 169.527 404.528C170.049 404.099 170.311 403.529 170.311 402.82C170.311 402.484 170.245 402.185 170.115 401.924C169.984 401.663 169.713 401.401 169.303 401.14C168.911 400.879 168.603 400.692 168.379 400.58C168.173 400.468 167.735 400.263 167.063 399.964C166.876 399.871 166.736 399.805 166.643 399.768C165.952 399.451 165.392 399.171 164.963 398.928C164.533 398.667 164.067 398.321 163.563 397.892C163.059 397.463 162.676 396.949 162.415 396.352C162.172 395.755 162.051 395.073 162.051 394.308C162.051 392.703 162.639 391.415 163.815 390.444C165.009 389.473 166.587 388.988 168.547 388.988C170.32 388.988 171.851 389.296 173.139 389.912ZM197.376 392.012H189.872V397.584H196.424V400.468H189.872V408H186.316V389.128H197.376V392.012ZM204.937 392.04V398.2H207.289C208.372 398.2 209.184 397.929 209.725 397.388C210.266 396.828 210.537 396.053 210.537 395.064C210.537 394.093 210.248 393.347 209.669 392.824C209.109 392.301 208.297 392.04 207.233 392.04H204.937ZM211.153 408L206.869 401.112H204.937V408H201.409V389.128H207.233C209.38 389.128 211.06 389.669 212.273 390.752C213.505 391.835 214.121 393.281 214.121 395.092C214.102 396.436 213.776 397.575 213.141 398.508C212.506 399.423 211.638 400.104 210.537 400.552L215.381 408H211.153ZM222.573 405.116H230.273V408H219.017V389.128H230.161V392.012H222.573V397.136H229.321V399.992H222.573V405.116ZM235.154 408V389.128H238.682V408H235.154ZM255.852 389.128V392.04H251.064V408H247.508V392.04H242.72V389.128H255.852ZM264.407 400.832H269.727L269.475 399.992C268.841 397.976 268.318 396.287 267.907 394.924C267.515 393.543 267.273 392.675 267.179 392.32L267.067 391.76C266.899 392.693 266.097 395.447 264.659 400.02L264.407 400.832ZM271.967 408L270.623 403.716H263.483L262.139 408H258.443L264.827 389.128H269.391L275.775 408H271.967ZM290.107 389.912V393.328C288.707 392.488 287.213 392.068 285.627 392.068C284.749 392.068 284.059 392.264 283.555 392.656C283.069 393.048 282.827 393.552 282.827 394.168C282.827 394.784 283.088 395.297 283.611 395.708C284.152 396.1 284.955 396.539 286.019 397.024C286.765 397.36 287.372 397.659 287.839 397.92C288.305 398.163 288.809 398.508 289.351 398.956C289.911 399.404 290.321 399.945 290.583 400.58C290.863 401.196 291.003 401.905 291.003 402.708C291.003 404.388 290.396 405.732 289.183 406.74C287.988 407.729 286.411 408.224 284.451 408.224C282.323 408.224 280.559 407.823 279.159 407.02V403.408C280.764 404.565 282.519 405.144 284.423 405.144C285.281 405.144 285.972 404.939 286.495 404.528C287.017 404.099 287.279 403.529 287.279 402.82C287.279 402.484 287.213 402.185 287.083 401.924C286.952 401.663 286.681 401.401 286.271 401.14C285.879 400.879 285.571 400.692 285.347 400.58C285.141 400.468 284.703 400.263 284.031 399.964C283.844 399.871 283.704 399.805 283.611 399.768C282.92 399.451 282.36 399.171 281.931 398.928C281.501 398.667 281.035 398.321 280.531 397.892C280.027 397.463 279.644 396.949 279.383 396.352C279.14 395.755 279.019 395.073 279.019 394.308C279.019 392.703 279.607 391.415 280.783 390.444C281.977 389.473 283.555 388.988 285.515 388.988C287.288 388.988 288.819 389.296 290.107 389.912Z" fill="#FEFBFF"/>
<g id="aprox">
<rect id="Rectangle 344" x="79.0248" y="159.025" width="93.6017" height="66.2727" rx="5.8074" fill="url(#paint1_linear_77_99)" stroke="#211F21" stroke-width="2.04967"/>
<path id="Vector 9" d="M79.3665 180.547H107.379" stroke="#211F21" stroke-width="1.91151" stroke-linecap="round"/>
<path id="Vector 10" d="M79.3665 201.726H106.764" stroke="#211F21" stroke-width="1.91151" stroke-linecap="round"/>
<path id="Vector 11" d="M144.956 201.726H172.285" stroke="#211F21" stroke-width="1.91151" stroke-linecap="round"/>
<path id="Vector 12" d="M144.545 181.23H172.285" stroke="#211F21" stroke-width="1.91151" stroke-linecap="round"/>
<path id="Vector 15" d="M115.5 165.5H126.25H137M114.5 219.5H136" stroke="#211F21" stroke-width="1.91151" stroke-linecap="round"/>
<g id="Vector 13">
<path d="M227.589 219.777C235.226 200.604 236.097 189.78 227.589 170.259C226.686 168.188 227.589 166.462 228.624 166.117C229.66 165.771 231.262 166.117 232.249 168.188C242.272 189.217 241.662 201.01 232.767 222.043C231.731 224.114 229.793 224.375 228.624 223.596C227.257 222.685 226.944 221.396 227.589 219.777Z" fill="#FEFBFF"/>
<path d="M216.714 171.813C215.678 172.331 215.016 174.295 216.196 176.473C223.164 190.97 222.877 199.26 216.196 214.275C215.467 215.789 215.918 217.462 217.232 217.9C218.785 218.418 220.142 217.316 220.857 215.829C228.527 199.871 228.729 190.704 220.857 173.884C220.13 172.331 218.268 171.036 216.714 171.813Z" fill="#FEFBFF"/>
<path d="M206.357 178.545C204.804 179.062 204.529 180.781 205.322 182.687C209.445 192.596 210.096 198.152 205.322 208.061C204.391 209.788 204.085 211.619 205.84 212.204C207.594 212.789 208.859 211.866 209.464 210.65C215.582 198.517 214.211 191.714 209.464 179.58C209.059 178.545 207.911 178.027 206.357 178.545Z" fill="#FEFBFF"/>
<path d="M195.483 182.687C193.929 183.723 193.709 185.294 194.965 187.866C197.586 193.323 197.526 196.388 194.965 201.847C193.774 204.255 193.412 207.026 195.483 207.543C197.554 208.061 198.474 207.326 199.626 204.436C202.27 196.834 202.529 192.535 199.626 184.759C198.957 182.741 197.554 181.652 195.483 182.687Z" fill="#FEFBFF"/>
</g>
<path id="Vector 14" d="M144.5 181.5C141.749 189.505 141.657 193.721 144.614 201.726C141.863 209.731 142.179 216.995 145.137 225M107.379 225C111.155 216.937 111.116 210.473 107.379 201.726C111.155 193.663 111.116 188.952 107.379 180.205C111.155 172.142 111.238 167.747 107.5 159" stroke="#211F21" stroke-width="1.91151" stroke-linecap="round"/>
</g>
<g id="Visa">
<path d="M602.578 401.407L610.822 351.03H624.009L615.759 401.407H602.578ZM663.396 352.116C660.784 351.095 656.69 350 651.579 350C638.549 350 629.371 356.832 629.294 366.625C629.22 373.864 635.846 377.902 640.847 380.312C645.98 382.781 647.705 384.356 647.681 386.561C647.648 389.937 643.582 391.48 639.792 391.48C634.514 391.48 631.711 390.716 627.38 388.836L625.681 388.035L623.83 399.313C626.91 400.719 632.605 401.937 638.518 402C652.379 402 661.377 395.246 661.479 384.789C661.529 379.058 658.016 374.697 650.408 371.101C645.8 368.771 642.977 367.216 643.007 364.856C643.007 362.762 645.396 360.523 650.558 360.523C654.87 360.453 657.994 361.433 660.428 362.453L661.609 363.034L663.396 352.116ZM697.328 351.029H687.139C683.982 351.029 681.62 351.926 680.234 355.207L660.651 401.373H674.498C674.498 401.373 676.761 395.166 677.273 393.803C678.787 393.803 692.237 393.825 694.161 393.825C694.555 395.588 695.764 401.373 695.764 401.373H708L697.328 351.028V351.029ZM681.162 383.559C682.252 380.657 686.415 369.477 686.415 369.477C686.337 369.611 687.498 366.56 688.164 364.669L689.054 369.012C689.054 369.012 691.58 381.038 692.107 383.559H681.162ZM591.385 351.029L578.475 385.384L577.1 378.402C574.696 370.354 567.209 361.635 558.838 357.27L570.642 401.327L584.593 401.31L605.352 351.029H591.385" fill="#FFF5FA"/>
<path d="M566.43 351.027H545.168L545 352.075C561.541 356.245 572.487 366.322 577.031 378.43L572.408 355.279C571.609 352.09 569.295 351.138 566.431 351.026" fill="#FFF5FA"/>
</g>
<g id="Logo">
<path id="Fill-4" d="M682.432 154.503H679.886L682.432 150.781H685.566L682.432 154.503ZM680.277 169C679.102 169 677.927 168.608 677.339 167.629C676.556 166.649 676.164 165.474 676.164 164.102V156.266H679.102V163.711C679.102 164.69 679.298 165.474 679.69 165.866C680.081 166.453 680.669 166.649 681.257 166.649C682.04 166.649 682.628 166.453 683.02 165.866C683.411 165.278 683.607 164.69 683.607 163.711V156.07H686.545V168.608H683.999L683.803 167.237C683.411 167.825 683.02 168.217 682.236 168.412C681.648 168.804 681.061 169 680.277 169ZM668.525 166.845C669.308 166.845 669.896 166.649 670.288 166.062C670.875 165.474 671.071 164.886 671.071 164.102V162.927C670.875 162.927 670.679 162.927 670.679 162.927C670.484 162.927 670.288 162.927 670.092 162.927C668.917 162.927 668.133 163.123 667.35 163.515C666.762 163.907 666.37 164.494 666.37 165.082C666.37 165.67 666.566 166.062 666.958 166.453C667.545 166.649 667.937 166.845 668.525 166.845ZM667.741 169C666.566 169 665.587 168.608 664.803 168.021C664.02 167.433 663.628 166.453 663.628 165.474C663.628 164.102 664.216 162.927 665.195 162.143C666.37 161.36 667.937 160.968 669.896 160.968H670.484C670.679 160.968 670.875 160.968 671.071 160.968C671.071 159.988 670.679 159.401 670.288 159.009C669.896 158.617 669.112 158.421 668.329 158.421C667.154 158.421 665.978 158.813 664.803 159.401V157.05C665.978 156.462 667.35 156.07 668.721 156.07C670.288 156.07 671.659 156.462 672.442 157.442C673.422 158.421 673.813 159.597 673.813 161.36V168.804H671.463L671.267 167.237C670.875 167.825 670.288 168.217 669.7 168.608C669.112 168.804 668.525 169 667.741 169ZM660.494 168.804C659.123 168.804 658.143 168.412 657.556 167.825C656.968 167.041 656.577 166.062 656.577 164.69V158.617H654.618V156.07H656.577V152.74H659.515V156.07H662.257V158.421H659.515V164.298C659.515 165.082 659.71 165.474 659.906 165.866C660.102 166.257 660.69 166.453 661.277 166.453C661.669 166.453 662.257 166.453 662.649 166.257V168.608C661.865 168.804 661.277 168.804 660.494 168.804ZM649.721 168.608H652.659V152.348H649.721V168.608Z" fill="#FFF5FA"/>
<path id="Logo_2" d="M688.113 135.304V82.9971C688.113 75.1609 681.453 68.6959 673.226 68.6959V135.304H688.113ZM606.237 68.6959C598.01 68.6959 591.35 74.965 591.35 82.8012V135.304H606.237V68.6959ZM635.814 81.234H661.278V68.6959H635.814V44.4035H632.876C626.02 44.4035 620.34 49.8889 620.34 56.5497V56.7456V69.0878V109.249C620.34 112.187 620.536 114.93 621.123 117.869C622.495 125.313 626.216 131.582 633.659 134.912C643.061 139.026 651.484 138.635 661.082 135.5V121.787C661.082 121.787 655.989 123.942 648.546 123.942C647.567 123.942 646.391 123.942 645.412 123.746C640.515 122.766 637.185 119.828 636.206 114.538C636.01 112.971 635.814 111.599 635.814 110.032V81.234ZM670.876 44.0117C670.876 49.1053 674.989 53.2193 680.473 53.2193C685.958 53.2193 690.267 49.3012 690.267 44.0117C690.267 38.9181 686.154 35 680.669 35C675.185 35 670.876 38.9181 670.876 44.0117ZM598.598 35.1959C604.082 35.1959 608.392 39.114 608.392 44.2076C608.392 49.3012 604.082 53.4152 598.598 53.2193C593.113 53.2193 589 49.3012 589 44.2076C589 39.114 593.113 35.1959 598.598 35.1959Z" fill="#FFF5FA"/>
</g>
<g id="Braile">
<g id="Ellipse 169" filter="url(#filter1_dddd_77_99)">
<circle cx="530" cy="219" r="5" fill="url(#paint2_radial_77_99)"/>
<circle cx="530" cy="219" r="5" fill="black" fill-opacity="0.2"/>
</g>
<g id="Ellipse 170">
<circle cx="550" cy="202" r="5" fill="url(#paint3_radial_77_99)"/>
<circle cx="550" cy="202" r="5" fill="black" fill-opacity="0.2"/>
</g>
<g id="Ellipse 171">
<circle cx="593" cy="237" r="5" fill="url(#paint4_radial_77_99)"/>
<circle cx="593" cy="237" r="5" fill="black" fill-opacity="0.2"/>
</g>
<g id="Ellipse 172">
<circle cx="594" cy="219" r="5" fill="url(#paint5_radial_77_99)"/>
<circle cx="594" cy="219" r="5" fill="black" fill-opacity="0.2"/>
</g>
<g id="Ellipse 173">
<circle cx="613" cy="218" r="5" fill="url(#paint6_radial_77_99)"/>
<circle cx="613" cy="218" r="5" fill="black" fill-opacity="0.2"/>
</g>
<g id="Ellipse 174">
<circle cx="613" cy="202" r="5" fill="url(#paint7_radial_77_99)"/>
<circle cx="613" cy="202" r="5" fill="black" fill-opacity="0.2"/>
</g>
<g id="Ellipse 175">
<circle cx="656" cy="219" r="5" fill="url(#paint8_radial_77_99)"/>
<circle cx="656" cy="219" r="5" fill="black" fill-opacity="0.2"/>
</g>
<g id="Ellipse 176">
<circle cx="678" cy="202" r="5" fill="url(#paint9_radial_77_99)"/>
<circle cx="678" cy="202" r="5" fill="black" fill-opacity="0.2"/>
</g>
</g>
<path id="Platinum" d="M610.792 421.392H613.288C614.504 421.392 615.456 421.08 616.144 420.456C616.832 419.816 617.176 419.008 617.176 418.032C617.176 416.944 616.824 416.08 616.12 415.44C615.416 414.8 614.416 414.48 613.12 414.48H610.792V421.392ZM608.848 412.824H613.096C614.968 412.824 616.44 413.312 617.512 414.288C618.6 415.248 619.144 416.496 619.144 418.032C619.144 419.472 618.608 420.672 617.536 421.632C616.464 422.576 615.048 423.048 613.288 423.048H610.792V429H608.848V412.824ZM623.366 429V412.032H625.262V429H623.366ZM636.864 423.384H634.752C633.728 423.384 632.96 423.584 632.448 423.984C631.936 424.384 631.68 424.888 631.68 425.496C631.68 426.104 631.88 426.6 632.28 426.984C632.68 427.352 633.264 427.536 634.032 427.536C634.896 427.536 635.584 427.296 636.096 426.816C636.608 426.32 636.864 425.696 636.864 424.944V423.384ZM630.576 419.376V417.48C631.488 416.92 632.688 416.64 634.176 416.64C637.232 416.64 638.76 418.192 638.76 421.296V429H636.888V427.56C636.264 428.6 635.128 429.12 633.48 429.12C632.344 429.12 631.424 428.784 630.72 428.112C630.032 427.44 629.688 426.592 629.688 425.568C629.688 424.4 630.128 423.496 631.008 422.856C631.904 422.2 633.12 421.872 634.656 421.872H636.864V421.248C636.864 420.288 636.648 419.568 636.216 419.088C635.784 418.592 635.056 418.344 634.032 418.344C632.736 418.344 631.584 418.688 630.576 419.376ZM646.18 418.368V425.496C646.18 426.792 646.788 427.44 648.004 427.44C648.628 427.44 649.18 427.256 649.66 426.888V428.688C649.132 428.976 648.54 429.12 647.884 429.12C645.484 429.12 644.284 427.896 644.284 425.448V418.368H642.34V416.832H644.284V413.808H646.18V416.832H649.54V418.368H646.18ZM653.96 429V416.832H655.856V429H653.96ZM654.008 413.904C653.784 413.664 653.672 413.368 653.672 413.016C653.672 412.664 653.784 412.368 654.008 412.128C654.248 411.888 654.544 411.768 654.896 411.768C655.248 411.768 655.544 411.888 655.784 412.128C656.024 412.368 656.144 412.664 656.144 413.016C656.144 413.368 656.024 413.664 655.784 413.904C655.544 414.128 655.248 414.24 654.896 414.24C654.544 414.24 654.248 414.128 654.008 413.904ZM662.777 416.832V418.944C663.497 417.424 664.777 416.664 666.617 416.664C667.801 416.664 668.745 417.024 669.449 417.744C670.153 418.464 670.505 419.424 670.505 420.624V429H668.609V421.128C668.609 420.232 668.377 419.552 667.913 419.088C667.465 418.608 666.873 418.368 666.137 418.368C665.225 418.368 664.433 418.72 663.761 419.424C663.105 420.128 662.777 421.104 662.777 422.352V429H660.905V416.832H662.777ZM682.866 416.832H684.762V429H682.866V426.888C682.226 428.392 680.954 429.144 679.05 429.144C677.85 429.144 676.898 428.792 676.194 428.088C675.506 427.368 675.162 426.408 675.162 425.208V416.832H677.058V424.728C677.058 425.608 677.282 426.28 677.73 426.744C678.178 427.208 678.786 427.44 679.554 427.44C680.562 427.44 681.362 427.088 681.954 426.384C682.562 425.68 682.866 424.728 682.866 423.528V416.832ZM691.579 416.832V418.8C692.251 417.376 693.395 416.664 695.011 416.664C696.883 416.664 698.067 417.456 698.563 419.04C698.915 418.272 699.403 417.688 700.027 417.288C700.667 416.872 701.379 416.664 702.163 416.664C703.427 416.664 704.379 417.024 705.019 417.744C705.659 418.464 705.979 419.432 705.979 420.648V429H704.083V421.128C704.083 419.288 703.307 418.368 701.755 418.368C700.987 418.368 700.299 418.72 699.691 419.424C699.083 420.112 698.779 421.088 698.779 422.352V429H696.883V421.128C696.883 419.288 696.107 418.368 694.555 418.368C693.787 418.368 693.099 418.72 692.491 419.424C691.883 420.112 691.579 421.088 691.579 422.352V429H689.707V416.832H691.579Z" fill="white"/>
</g>
<defs>
<filter id="filter0_d_77_99" x="-4" y="0" width="730" height="466" filterUnits="userSpaceOnUse" color-interpolation-filters="sRGB">
<feFlood flood-opacity="0" result="BackgroundImageFix"/>
<feColorMatrix in="SourceAlpha" type="matrix" values="0 0 0 0 0 0 0 0 0 0 0 0 0 0 0 0 0 0 127 0" result="hardAlpha"/>
<feOffset dy="4"/>
<feGaussianBlur stdDeviation="2"/>
<feComposite in2="hardAlpha" operator="out"/>
<feColorMatrix type="matrix" values="0 0 0 0 0 0 0 0 0 0 0 0 0 0 0 0 0 0 0.25 0"/>
<feBlend mode="normal" in2="BackgroundImageFix" result="effect1_dropShadow_77_99"/>
<feBlend mode="normal" in="SourceGraphic" in2="effect1_dropShadow_77_99" result="shape"/>
</filter>
<filter id="filter1_dddd_77_99" x="414" y="150" width="232" height="232" filterUnits="userSpaceOnUse" color-interpolation-filters="sRGB">
<feFlood flood-opacity="0" result="BackgroundImageFix"/>
<feColorMatrix in="SourceAlpha" type="matrix" values="0 0 0 0 0 0 0 0 0 0 0 0 0 0 0 0 0 0 127 0" result="hardAlpha"/>
<feOffset dy="2.12854"/>
<feGaussianBlur stdDeviation="2.51348"/>
<feColorMatrix type="matrix" values="0 0 0 0 0.0352941 0 0 0 0 0.00392157 0 0 0 0 0.0196078 0 0 0 0.01 0"/>
<feBlend mode="normal" in2="BackgroundImageFix" result="effect1_dropShadow_77_99"/>
<feColorMatrix in="SourceAlpha" type="matrix" values="0 0 0 0 0 0 0 0 0 0 0 0 0 0 0 0 0 0 127 0" result="hardAlpha"/>
<feOffset dy="5.88513"/>
<feGaussianBlur stdDeviation="6.94946"/>
<feColorMatrix type="matrix" values="0 0 0 0 0.0352941 0 0 0 0 0.00392157 0 0 0 0 0.0196078 0 0 0 0.0226 0"/>
<feBlend mode="normal" in2="effect1_dropShadow_77_99" result="effect2_dropShadow_77_99"/>
<feColorMatrix in="SourceAlpha" type="matrix" values="0 0 0 0 0 0 0 0 0 0 0 0 0 0 0 0 0 0 127 0" result="hardAlpha"/>
<feOffset dy="14.1691"/>
<feGaussianBlur stdDeviation="16.7316"/>
<feColorMatrix type="matrix" values="0 0 0 0 0.0352941 0 0 0 0 0.00392157 0 0 0 0 0.0196078 0 0 0 0.0275 0"/>
<feBlend mode="normal" in2="effect2_dropShadow_77_99" result="effect3_dropShadow_77_99"/>
<feColorMatrix in="SourceAlpha" type="matrix" values="0 0 0 0 0 0 0 0 0 0 0 0 0 0 0 0 0 0 127 0" result="hardAlpha"/>
<feOffset dy="47"/>
<feGaussianBlur stdDeviation="55.5"/>
<feColorMatrix type="matrix" values="0 0 0 0 0.0352941 0 0 0 0 0.00392157 0 0 0 0 0.0196078 0 0 0 0.05 0"/>
<feBlend mode="normal" in2="effect3_dropShadow_77_99" result="effect4_dropShadow_77_99"/>
<feBlend mode="normal" in="SourceGraphic" in2="effect4_dropShadow_77_99" result="shape"/>
</filter>
<linearGradient id="paint0_linear_77_99" x1="63" y1="45" x2="417.637" y2="594.254" gradientUnits="userSpaceOnUse">
<stop stop-color="#FD932F"/>
<stop offset="1" stop-color="#FD0343"/>
</linearGradient>
<linearGradient id="paint1_linear_77_99" x1="165.596" y1="167.44" x2="85.3128" y2="220.963" gradientUnits="userSpaceOnUse">
<stop stop-color="#F4F4F4"/>
<stop offset="1" stop-color="#D6D6D6"/>
</linearGradient>
<radialGradient id="paint2_radial_77_99" cx="0" cy="0" r="1" gradientUnits="userSpaceOnUse" gradientTransform="translate(527 219.5) scale(12 33.6609)">
<stop stop-color="#8B030F"/>
<stop offset="1" stop-color="#F09AA7"/>
</radialGradient>
<radialGradient id="paint3_radial_77_99" cx="0" cy="0" r="1" gradientUnits="userSpaceOnUse" gradientTransform="translate(547 202.5) scale(12 33.6609)">
<stop stop-color="#8B030F"/>
<stop offset="1" stop-color="#F09AA7"/>
</radialGradient>
<radialGradient id="paint4_radial_77_99" cx="0" cy="0" r="1" gradientUnits="userSpaceOnUse" gradientTransform="translate(590 237.5) scale(12 33.6609)">
<stop stop-color="#8B030F"/>
<stop offset="1" stop-color="#F09AA7"/>
</radialGradient>
<radialGradient id="paint5_radial_77_99" cx="0" cy="0" r="1" gradientUnits="userSpaceOnUse" gradientTransform="translate(591 219.5) scale(12 33.6609)">
<stop stop-color="#8B030F"/>
<stop offset="1" stop-color="#F09AA7"/>
</radialGradient>
<radialGradient id="paint6_radial_77_99" cx="0" cy="0" r="1" gradientUnits="userSpaceOnUse" gradientTransform="translate(610 218.5) scale(12 33.6609)">
<stop stop-color="#8B030F"/>
<stop offset="1" stop-color="#F09AA7"/>
</radialGradient>
<radialGradient id="paint7_radial_77_99" cx="0" cy="0" r="1" gradientUnits="userSpaceOnUse" gradientTransform="translate(610 202.5) scale(12 33.6609)">
<stop stop-color="#8B030F"/>
<stop offset="1" stop-color="#F09AA7"/>
</radialGradient>
<radialGradient id="paint8_radial_77_99" cx="0" cy="0" r="1" gradientUnits="userSpaceOnUse" gradientTransform="translate(653 219.5) scale(12 33.6609)">
<stop stop-color="#8B030F"/>
<stop offset="1" stop-color="#F09AA7"/>
</radialGradient>
<radialGradient id="paint9_radial_77_99" cx="0" cy="0" r="1" gradientUnits="userSpaceOnUse" gradientTransform="translate(675 202.5) scale(12 33.6609)">
<stop stop-color="#8B030F"/>
<stop offset="1" stop-color="#F09AA7"/>
</radialGradient>
<clipPath id="clip0_77_99">
<rect width="722" height="458" fill="white"/>
</clipPath>
</defs>
</svg>
