<svg width="160" height="211" viewBox="0 0 160 211" fill="none" xmlns="http://www.w3.org/2000/svg">
<g id="Logo">
<g id="itau">
<mask id="path-1-inside-1_173_2" fill="white">
<path d="M146.707 187.721H142.709L146.707 181.876H151.628L146.707 187.721ZM143.324 210.484C141.479 210.484 139.633 209.869 138.711 208.331C137.481 206.793 136.865 204.947 136.865 202.794V190.489H141.479V202.179C141.479 203.717 141.786 204.947 142.402 205.562C143.017 206.485 143.939 206.793 144.862 206.793C146.092 206.793 147.015 206.485 147.63 205.562C148.245 204.64 148.553 203.717 148.553 202.179V190.182H153.166V209.869H149.168L148.86 207.716C148.245 208.639 147.63 209.254 146.4 209.561C145.477 210.177 144.555 210.484 143.324 210.484ZM124.87 207.101C126.101 207.101 127.023 206.793 127.638 205.87C128.561 204.947 128.869 204.024 128.869 202.794V200.948C128.561 200.948 128.254 200.948 128.254 200.948C127.946 200.948 127.638 200.948 127.331 200.948C125.485 200.948 124.255 201.256 123.025 201.871C122.102 202.486 121.487 203.409 121.487 204.332C121.487 205.255 121.795 205.87 122.41 206.485C123.333 206.793 123.948 207.101 124.87 207.101ZM123.64 210.484C121.795 210.484 120.257 209.869 119.027 208.946C117.796 208.023 117.181 206.485 117.181 204.947C117.181 202.794 118.104 200.948 119.642 199.718C121.487 198.487 123.948 197.872 127.023 197.872H127.946C128.254 197.872 128.561 197.872 128.869 197.872C128.869 196.334 128.254 195.411 127.638 194.796C127.023 194.181 125.793 193.873 124.563 193.873C122.717 193.873 120.872 194.488 119.027 195.411V191.72C120.872 190.797 123.025 190.182 125.178 190.182C127.638 190.182 129.791 190.797 131.022 192.335C132.559 193.873 133.175 195.719 133.175 198.487V210.177H129.484L129.176 207.716C128.561 208.639 127.638 209.254 126.716 209.869C125.793 210.177 124.87 210.484 123.64 210.484ZM112.26 210.177C110.107 210.177 108.569 209.561 107.647 208.639C106.724 207.408 106.109 205.87 106.109 203.717V194.181H103.033V190.182H106.109V184.952H110.722V190.182H115.028V193.873H110.722V203.102C110.722 204.332 111.03 204.947 111.337 205.562C111.645 206.178 112.568 206.485 113.49 206.485C114.106 206.485 115.028 206.485 115.643 206.178V209.869C114.413 210.177 113.49 210.177 112.26 210.177ZM95.3441 209.869H99.9576V184.337H95.3441V209.869Z"/>
</mask>
<path d="M146.707 187.721H142.709L146.707 181.876H151.628L146.707 187.721ZM143.324 210.484C141.479 210.484 139.633 209.869 138.711 208.331C137.481 206.793 136.865 204.947 136.865 202.794V190.489H141.479V202.179C141.479 203.717 141.786 204.947 142.402 205.562C143.017 206.485 143.939 206.793 144.862 206.793C146.092 206.793 147.015 206.485 147.63 205.562C148.245 204.64 148.553 203.717 148.553 202.179V190.182H153.166V209.869H149.168L148.86 207.716C148.245 208.639 147.63 209.254 146.4 209.561C145.477 210.177 144.555 210.484 143.324 210.484ZM124.87 207.101C126.101 207.101 127.023 206.793 127.638 205.87C128.561 204.947 128.869 204.024 128.869 202.794V200.948C128.561 200.948 128.254 200.948 128.254 200.948C127.946 200.948 127.638 200.948 127.331 200.948C125.485 200.948 124.255 201.256 123.025 201.871C122.102 202.486 121.487 203.409 121.487 204.332C121.487 205.255 121.795 205.87 122.41 206.485C123.333 206.793 123.948 207.101 124.87 207.101ZM123.64 210.484C121.795 210.484 120.257 209.869 119.027 208.946C117.796 208.023 117.181 206.485 117.181 204.947C117.181 202.794 118.104 200.948 119.642 199.718C121.487 198.487 123.948 197.872 127.023 197.872H127.946C128.254 197.872 128.561 197.872 128.869 197.872C128.869 196.334 128.254 195.411 127.638 194.796C127.023 194.181 125.793 193.873 124.563 193.873C122.717 193.873 120.872 194.488 119.027 195.411V191.72C120.872 190.797 123.025 190.182 125.178 190.182C127.638 190.182 129.791 190.797 131.022 192.335C132.559 193.873 133.175 195.719 133.175 198.487V210.177H129.484L129.176 207.716C128.561 208.639 127.638 209.254 126.716 209.869C125.793 210.177 124.87 210.484 123.64 210.484ZM112.26 210.177C110.107 210.177 108.569 209.561 107.647 208.639C106.724 207.408 106.109 205.87 106.109 203.717V194.181H103.033V190.182H106.109V184.952H110.722V190.182H115.028V193.873H110.722V203.102C110.722 204.332 111.03 204.947 111.337 205.562C111.645 206.178 112.568 206.485 113.49 206.485C114.106 206.485 115.028 206.485 115.643 206.178V209.869C114.413 210.177 113.49 210.177 112.26 210.177ZM95.3441 209.869H99.9576V184.337H95.3441V209.869Z" fill="#FFF5FA" stroke="#FFF5FA" stroke-width="3" mask="url(#path-1-inside-1_173_2)"/>
</g>
<g id="iti">
<mask id="path-2-inside-2_173_2" fill="white">
<path d="M155.627 157.575V75.4415C155.627 63.1369 145.17 52.9856 132.252 52.9856V157.575H155.627ZM27.065 52.9856C14.1473 52.9856 3.69007 62.8293 3.69007 75.1339V157.575H27.065V52.9856V52.9856ZM73.5073 72.673H113.491V52.9856H73.5073V14.8413H68.8938C58.1291 14.8413 49.2097 23.4546 49.2097 33.9135V34.2211V53.6008V116.662C49.2097 121.276 49.5172 125.583 50.4399 130.197C52.5929 141.886 58.4366 151.73 70.1241 156.959C84.8872 163.419 98.1125 162.804 113.183 157.882V136.349C113.183 136.349 105.186 139.733 93.499 139.733C91.9612 139.733 90.1158 139.733 88.578 139.425C80.8889 137.887 75.6603 133.273 74.1224 124.968C73.8149 122.507 73.5073 120.353 73.5073 117.892V72.673ZM128.561 14.2261C128.561 22.2241 135.02 28.684 143.632 28.684C152.244 28.684 159.01 22.5317 159.01 14.2261C159.01 6.22811 152.551 0.0758057 143.94 0.0758057C135.328 0.0758057 128.561 6.22811 128.561 14.2261ZM15.07 0.383422C23.6818 0.383422 30.4482 6.53572 30.4482 14.5337C30.4482 22.5317 23.6818 28.9916 15.07 28.684C6.45815 28.684 -0.000715256 22.5317 -0.000715256 14.5337C-0.000715256 6.53572 6.45815 0.383422 15.07 0.383422Z"/>
</mask>
<path d="M155.627 157.575V75.4415C155.627 63.1369 145.17 52.9856 132.252 52.9856V157.575H155.627ZM27.065 52.9856C14.1473 52.9856 3.69007 62.8293 3.69007 75.1339V157.575H27.065V52.9856V52.9856ZM73.5073 72.673H113.491V52.9856H73.5073V14.8413H68.8938C58.1291 14.8413 49.2097 23.4546 49.2097 33.9135V34.2211V53.6008V116.662C49.2097 121.276 49.5172 125.583 50.4399 130.197C52.5929 141.886 58.4366 151.73 70.1241 156.959C84.8872 163.419 98.1125 162.804 113.183 157.882V136.349C113.183 136.349 105.186 139.733 93.499 139.733C91.9612 139.733 90.1158 139.733 88.578 139.425C80.8889 137.887 75.6603 133.273 74.1224 124.968C73.8149 122.507 73.5073 120.353 73.5073 117.892V72.673ZM128.561 14.2261C128.561 22.2241 135.02 28.684 143.632 28.684C152.244 28.684 159.01 22.5317 159.01 14.2261C159.01 6.22811 152.551 0.0758057 143.94 0.0758057C135.328 0.0758057 128.561 6.22811 128.561 14.2261ZM15.07 0.383422C23.6818 0.383422 30.4482 6.53572 30.4482 14.5337C30.4482 22.5317 23.6818 28.9916 15.07 28.684C6.45815 28.684 -0.000715256 22.5317 -0.000715256 14.5337C-0.000715256 6.53572 6.45815 0.383422 15.07 0.383422Z" fill="url(#paint0_linear_173_2)" stroke="url(#paint1_linear_173_2)" stroke-width="3" mask="url(#path-2-inside-2_173_2)"/>
</g>
</g>
<defs>
<linearGradient id="paint0_linear_173_2" x1="1.46602" y1="0.537558" x2="158.673" y2="159.547" gradientUnits="userSpaceOnUse">
<stop stop-color="#E96401"/>
<stop offset="1" stop-color="#FD4D7C"/>
</linearGradient>
<linearGradient id="paint1_linear_173_2" x1="1.46602" y1="0.537558" x2="158.673" y2="159.547" gradientUnits="userSpaceOnUse">
<stop stop-color="#E96401"/>
<stop offset="1" stop-color="#FD4D7C"/>
</linearGradient>
</defs>
</svg>
